
<svg width="650" height="677" viewBox="0 0 650 677" fill="none" xmlns="http://www.w3.org/2000/svg"><g clip-path="url(#clip0_1643_11525)"><g style="mix-blend-mode:multiply" opacity="0.3"><path d="M471.728 360.303L137.672 553.181L137.473 553.217L104.917 560.104C100.777 559.363 96.8183 562.128 96.0772 566.268C95.336 570.408 98.1017 574.366 102.241 575.107L139.624 567.208L285.394 651.373L264.226 655.856C260.087 655.115 256.128 657.88 255.387 662.02C254.645 666.16 257.411 670.118 261.551 670.859L303.705 661.948L315.708 668.871V668.98L392.697 623.029C392.498 624.909 392.426 626.807 392.534 628.723C394.143 657.555 431.797 678.886 476.609 676.391C521.421 673.878 556.453 648.481 554.844 619.648C553.362 593.13 521.384 572.956 481.381 571.854L649.927 476.048V463.322L650 463.267L471.71 360.339L471.728 360.303Z" fill="#828BA4"/></g><g opacity="0.8"><path d="M203.418 181.49L76.8817 256.183L75.3633 255.423V162.997L203.4 89.082L204.901 89.8413L203.418 181.49Z" fill="#454C61"/><path d="M204.938 182.248L76.8828 256.181V163.773L204.938 89.8398V182.248Z" fill="#30384F"/><path d="M88.9049 173.879L85.3438 175.94V173.011L88.9049 170.969V173.879Z" fill="white"/><path d="M141.001 143.799L92.8633 171.583V168.672L141.001 140.889V143.799Z" fill="#F5D533"/><path d="M88.9049 180.711L85.3438 182.772V179.843L88.9049 177.801V180.711Z" fill="white"/><path d="M115.098 165.582L92.8633 178.417V175.506L115.098 162.672V165.582Z" fill="#F5D533"/><path d="M88.9049 187.543L85.3438 189.604V186.694L88.9049 184.633V187.543Z" fill="white"/><path d="M126.594 165.781L92.8633 185.25V182.34L126.594 162.871V165.781Z" fill="#F5D533"/><path d="M88.9049 194.377L85.3438 196.438V193.528L88.9049 191.467V194.377Z" fill="white"/><path d="M133.138 168.836L92.8633 192.083V189.172L133.138 165.926V168.836Z" fill="#F5D533"/><path d="M88.9049 204.32L85.3438 206.381V203.453L88.9049 201.41V204.32Z" fill="white"/><path d="M118.371 187.309L92.8828 202.023V199.113L118.371 184.398V187.309Z" fill="#FF6469"/><path d="M88.9049 211.153L85.3438 213.213V210.285L88.9049 208.242V211.153Z" fill="white"/><path d="M139.665 181.85L92.8828 208.856V205.946L139.665 178.939V181.85Z" fill="#FF6469"/><path d="M88.9049 217.985L85.3438 220.045V217.117L88.9049 215.074V217.985Z" fill="white"/><path d="M111.321 205.043L92.8828 215.69V212.78L111.321 202.133V205.043Z" fill="#FF6469"/><path d="M88.9049 224.817L85.3438 226.877V223.949L88.9049 221.906V224.817Z" fill="white"/><path d="M125.855 203.487L92.8828 222.522V219.611L125.855 200.559V203.487Z" fill="#FF6469"/><path d="M164.734 129.409L167.464 127.837V125.613L164.734 127.186V129.409Z" fill="white"/><path d="M189.374 112.961L170.484 123.861V126.085L189.374 115.184V112.961Z" fill="white"/><path d="M164.734 134.616L167.464 133.044V130.82L164.734 132.393V134.616Z" fill="white"/><path d="M179.215 124.043L170.484 129.086V131.292L179.215 126.266V124.043Z" fill="white"/><path d="M164.734 139.823L167.464 138.25V136.045L164.734 137.6V139.823Z" fill="white"/><path d="M183.735 126.645L170.484 134.291V136.514L183.735 128.868V126.645Z" fill="white"/><path d="M164.734 145.028L167.464 143.473V141.25L164.734 142.823V145.028Z" fill="white"/><path d="M186.283 130.369L170.484 139.498V141.721L186.283 132.593V130.369Z" fill="white"/><path d="M164.734 152.62L167.464 151.048V148.824L164.734 150.397V152.62Z" fill="white"/><path d="M182.795 139.969L170.484 147.073V149.296L182.795 142.192V139.969Z" fill="white"/><path d="M164.734 157.827L167.464 156.255V154.031L164.734 155.604V157.827Z" fill="white"/><path d="M170.484 152.295V154.519L193.08 141.468V139.244L170.484 152.295Z" fill="white"/><path d="M164.734 163.032L167.464 161.477V159.254L164.734 160.827V163.032Z" fill="white"/><path d="M179.396 152.367L170.484 157.501V159.724L179.396 154.591V152.367Z" fill="white"/><path d="M164.734 168.257L167.464 166.684V164.461L164.734 166.034V168.257Z" fill="white"/><path d="M170.484 164.932L186.428 155.731V153.525L170.484 162.708V164.932Z" fill="white"/></g><g opacity="0.8"><path d="M272.324 179.464L145.788 254.157L144.27 253.398V160.99L272.324 87.0566L273.807 87.8159L272.324 179.464Z" fill="#75C1F8"/><path d="M273.914 180.349L145.859 254.283V161.875L273.914 87.9414V180.349Z" fill="#B8DFFB"/><path d="M250.233 170.044L169.539 216.646V173.461L250.233 126.859V170.044Z" fill="#3FA9F5"/><path d="M243.708 140.978L176.047 180.023V178.161L243.708 139.098V140.978Z" fill="white"/><path d="M243.708 147.485L176.047 186.549V184.687L243.708 145.623V147.485Z" fill="white"/><path d="M243.708 154.01L176.047 193.074V191.212L243.708 152.148V154.01Z" fill="white"/><path d="M273.914 96.8532L145.859 170.787V161.875L273.914 87.9414V96.8532Z" fill="#3FA9F5"/></g><path d="M294.757 51.5547C293.329 54.0312 292.461 56.7969 292.461 59.3096V102.386C292.461 107.43 302.819 114.516 307.175 112.003L341.286 87.2199C343.509 85.9365 345.516 83.713 346.962 81.1642C330.838 72.0355 311.803 59.3096 294.775 51.5547H294.757Z" fill="#F5D533"/><path d="M341.286 87.2202L307.175 112.003C302.819 114.516 292.461 107.43 292.461 102.386V59.3099C292.461 54.2665 295.986 48.1566 300.36 45.6258L337.671 24.0965C342.027 21.5839 352.909 26.7538 352.963 31.2187L349.185 73.5362C349.185 78.5796 345.642 84.6895 341.286 87.2202Z" fill="#FBEDA7"/><path d="M294.757 51.5547C293.329 54.0312 292.461 56.7969 292.461 59.3096V102.386C292.461 107.43 302.819 114.516 307.175 112.003L341.286 87.2199C343.509 85.9365 345.516 83.713 346.962 81.1642C330.838 72.0355 311.803 59.3096 294.775 51.5547H294.757Z" fill="#F5D533"/><g style="mix-blend-mode:multiply"><path d="M294.757 51.5547C293.329 54.0312 292.461 56.7969 292.461 59.3096V102.386C292.461 107.43 302.819 114.516 307.175 112.003L341.286 87.2199C343.509 85.9365 345.516 83.713 346.962 81.1642C330.838 72.0355 311.803 59.3096 294.775 51.5547H294.757Z" fill="#F9E88F"/></g><path d="M345.464 90.0043L308.153 111.534C303.797 114.046 300.254 112.004 300.254 106.978V63.9016C300.254 58.8583 303.779 52.7484 308.153 50.2176L345.464 28.6883C349.82 26.1757 353.363 28.2183 353.363 33.2437V76.3203C353.363 81.3637 349.838 87.4736 345.464 90.0043Z" fill="#F5D533"/><path d="M312.376 73.0128L305.856 72.8957C305.625 72.8968 305.454 72.8019 305.344 72.6112C305.253 72.4536 305.256 72.2582 305.354 72.0249L308.512 66.3202C308.627 66.1546 308.784 66.0636 308.985 66.0473C309.189 66.0179 309.346 66.0985 309.456 66.2893C309.566 66.48 309.571 66.6707 309.471 66.8611L306.42 72.3213L306.112 71.7864L312.373 71.8868C312.593 71.9036 312.753 71.9991 312.853 72.1733C312.93 72.306 312.951 72.4377 312.916 72.5685C312.889 72.6946 312.825 72.8035 312.723 72.8954C312.63 72.9826 312.514 73.0217 312.376 73.0128ZM315.708 73.7596C315.534 73.8602 315.356 73.8687 315.175 73.7852C315.007 73.7051 314.908 73.5524 314.877 73.3268L313.16 61.3313C313.14 61.221 313.158 61.1169 313.212 61.0193C313.266 60.9217 313.343 60.8441 313.443 60.7867C313.625 60.6813 313.801 60.6794 313.97 60.7808C314.134 60.8739 314.235 61.0201 314.273 61.2195L315.998 73.2274C316.014 73.3509 315.992 73.4573 315.933 73.5466C315.874 73.636 315.799 73.707 315.708 73.7596ZM320.631 68.2466C320.57 68.3704 320.474 68.4534 320.344 68.4955C320.222 68.5329 320.095 68.534 319.964 68.499C319.842 68.4592 319.742 68.3729 319.666 68.2402C319.565 68.066 319.563 67.8796 319.658 67.6808L322.714 62.201L323.023 62.7359L316.756 62.6551C316.541 62.6466 316.379 62.5469 316.269 62.3562C316.158 62.1655 316.163 61.9914 316.282 61.8341C316.405 61.6637 316.567 61.5703 316.767 61.554L323.287 61.6711C323.538 61.7032 323.709 61.7981 323.8 61.9556C323.91 62.1464 323.907 62.3418 323.79 62.5419L320.631 68.2466Z" fill="#79829D"/><path style="mix-blend-mode:overlay" opacity="0.7" d="M353.363 44.7397V33.243C353.363 28.1996 349.82 26.175 345.464 28.6877L308.153 50.217C303.797 52.7296 300.254 58.8576 300.254 63.901V94.324C315.221 72.2524 333.786 54.3927 353.345 44.7397H353.363Z" fill="url(#paint0_linear_1643_11525)"/><path d="M100.434 121.619L66.3238 146.402C61.9673 148.914 51.6094 141.828 51.6094 136.785V93.7083C51.6094 88.6649 55.1343 82.555 59.5089 80.0243L96.8191 58.495C101.176 55.9823 112.058 61.1522 112.112 65.6172L108.334 107.935C108.334 112.978 104.791 119.088 100.434 121.619Z" fill="#B4ECFF"/><path d="M53.9051 85.9531C52.4771 88.4296 51.6094 91.1954 51.6094 93.708V136.785C51.6094 141.828 61.9673 148.914 66.3238 146.401L100.434 121.618C102.658 120.335 104.664 118.111 106.11 115.563C89.9861 106.434 70.9514 93.708 53.9232 85.9531H53.9051Z" fill="#3FA9F5"/><path d="M53.9051 85.9531C52.4771 88.4296 51.6094 91.1954 51.6094 93.708V136.785C51.6094 141.828 61.9673 148.914 66.3238 146.401L100.434 121.618C102.658 120.335 104.664 118.111 106.11 115.563C89.9861 106.434 70.9514 93.708 53.9232 85.9531H53.9051Z" fill="#3FA9F5"/><g style="mix-blend-mode:multiply"><path d="M53.9051 85.9531C52.4771 88.4296 51.6094 91.1954 51.6094 93.708V136.785C51.6094 141.828 61.9673 148.914 66.3238 146.401L100.434 121.618C102.658 120.335 104.664 118.111 106.11 115.563C89.9861 106.434 70.9514 93.708 53.9232 85.9531H53.9051Z" fill="#95D0F9"/></g><path d="M104.612 124.42L67.3018 145.95C62.9454 148.462 59.4023 146.42 59.4023 141.394V98.3177C59.4023 93.2743 62.9273 87.1644 67.3018 84.6336L104.612 63.1044C108.969 60.5917 112.512 62.6344 112.512 67.6597V110.736C112.512 115.78 108.987 121.89 104.612 124.42Z" fill="#3FA9F5"/><path d="M66.5244 115.938C65.4323 116.569 64.571 116.338 63.9405 115.246L62.5218 112.789C62.2025 112.236 61.7663 112.119 61.2132 112.438C61.1012 112.503 60.981 112.521 60.8525 112.492C60.731 112.46 60.638 112.388 60.5733 112.276C60.5046 112.157 60.4865 112.036 60.519 111.915C60.5586 111.789 60.6344 111.694 60.7464 111.63C61.2994 111.31 61.4163 110.874 61.097 110.321L59.6783 107.864C59.0437 106.765 59.2725 105.9 60.3646 105.269C60.4766 105.205 60.5954 105.192 60.7209 105.232C60.8424 105.264 60.9375 105.34 61.0062 105.459C61.0708 105.571 61.0869 105.688 61.0544 105.809C61.0218 105.931 60.9495 106.024 60.8375 106.088C60.2845 106.408 60.1676 106.844 60.4869 107.397L61.9056 109.854C62.0592 110.12 62.1596 110.375 62.2068 110.618C62.254 110.862 62.2555 111.099 62.2115 111.33C62.6583 111.473 63.0312 111.804 63.3303 112.322L64.749 114.779C65.0643 115.325 65.4985 115.439 66.0515 115.119C66.1635 115.055 66.2803 115.039 66.4017 115.071C66.5273 115.111 66.6223 115.187 66.687 115.299C66.7557 115.418 66.7738 115.538 66.7413 115.659C66.7087 115.781 66.6364 115.874 66.5244 115.938ZM66.8717 112.686C66.7036 112.783 66.5258 112.806 66.3381 112.756C66.1503 112.705 66.008 112.596 65.911 112.428C65.8099 112.253 65.7845 112.072 65.8348 111.884C65.8921 111.692 66.0013 111.55 66.1623 111.457C66.3303 111.36 66.5102 111.34 66.702 111.398C66.8897 111.448 67.0321 111.557 67.1291 111.725C67.222 111.886 67.2454 112.064 67.1991 112.259C67.1558 112.442 67.0467 112.585 66.8717 112.686ZM69.138 111.377C68.97 111.474 68.7921 111.498 68.6044 111.447C68.4167 111.397 68.2743 111.288 68.1773 111.12C68.0763 110.945 68.0509 110.763 68.1012 110.576C68.1585 110.384 68.2676 110.242 68.4287 110.149C68.5967 110.052 68.7766 110.032 68.9683 110.089C69.1561 110.139 69.2984 110.249 69.3954 110.417C69.4884 110.578 69.5117 110.755 69.4655 110.95C69.4222 111.134 69.313 111.276 69.138 111.377ZM71.4043 110.069C71.2363 110.166 71.0585 110.189 70.8707 110.139C70.683 110.089 70.5407 109.979 70.4436 109.811C70.3426 109.636 70.3172 109.455 70.3675 109.267C70.4248 109.075 70.534 108.933 70.695 108.84C70.863 108.743 71.0429 108.723 71.2347 108.781C71.4224 108.831 71.5648 108.94 71.6618 109.108C71.7547 109.269 71.7781 109.447 71.7318 109.642C71.6885 109.825 71.5794 109.968 71.4043 110.069ZM74.3938 111.395C74.2818 111.46 74.1651 111.476 74.0436 111.443C73.9221 111.411 73.827 111.335 73.7583 111.216C73.6937 111.104 73.6756 110.984 73.7041 110.855C73.7366 110.734 73.8089 110.641 73.9209 110.576C74.474 110.257 74.5929 109.824 74.2776 109.278L72.8589 106.821C72.5598 106.303 72.4599 105.814 72.5591 105.356C72.3372 105.278 72.1326 105.159 71.9454 104.996C71.7582 104.833 71.5878 104.619 71.4342 104.353L70.0155 101.896C69.6962 101.343 69.26 101.226 68.7069 101.545C68.5949 101.61 68.4782 101.626 68.3567 101.593C68.2352 101.561 68.1422 101.488 68.0775 101.376C68.0088 101.257 67.9907 101.137 68.0232 101.016C68.0518 100.887 68.122 100.791 68.234 100.726C69.3261 100.095 70.1895 100.33 70.824 101.429L72.2427 103.886C72.562 104.439 72.9982 104.556 73.5513 104.237C73.6633 104.172 73.78 104.156 73.9015 104.189C74.03 104.217 74.1286 104.291 74.1973 104.41C74.2619 104.522 74.2745 104.641 74.235 104.766C74.2024 104.888 74.1301 104.981 74.0181 105.045C73.4651 105.365 73.3482 105.801 73.6675 106.354L75.0862 108.811C75.7167 109.903 75.4859 110.765 74.3938 111.395Z" fill="white"/><path style="mix-blend-mode:overlay" opacity="0.7" d="M112.512 79.1577V67.661C112.512 62.6176 108.969 60.593 104.612 63.1057L67.3018 84.6349C62.9454 87.1476 59.4023 93.2756 59.4023 98.319V128.742C74.3698 106.67 92.9345 88.8106 112.493 79.1577H112.512Z" fill="url(#paint1_linear_1643_11525)"/><path d="M226.591 63.7744L192.48 88.5575C188.124 91.0701 177.766 83.9841 177.766 78.9407V35.864C177.766 30.8207 181.291 24.7108 185.665 22.18L222.975 0.668811C227.332 -1.84384 238.214 3.32608 238.268 7.79101L234.49 50.1084C234.49 55.1518 230.947 61.2617 226.591 63.7925V63.7744Z" fill="#FFBCBE"/><path d="M180.081 28.1094C178.653 30.5859 177.785 33.3516 177.785 35.8643V78.9409C177.785 83.9843 188.143 91.0703 192.5 88.5577L226.61 63.7746C228.834 62.4912 230.84 60.2677 232.286 57.7189C216.162 48.5902 197.127 35.8643 180.099 28.1094H180.081Z" fill="#FF6469"/><g style="mix-blend-mode:multiply"><path d="M180.081 28.1094C178.653 30.5859 177.785 33.3516 177.785 35.8643V78.9409C177.785 83.9843 188.143 91.0703 192.5 88.5577L226.61 63.7746C228.834 62.4912 230.84 60.2677 232.286 57.7189C216.162 48.5902 197.127 35.8643 180.099 28.1094H180.081Z" fill="#FFAAAC"/></g><path d="M230.784 66.5766L193.474 88.1059C189.117 90.6185 185.574 88.5759 185.574 83.5506V40.4739C185.574 35.4305 189.099 29.3206 193.474 26.7899L230.784 5.26061C235.14 2.74795 238.683 4.79061 238.683 9.81592V52.8926C238.683 57.936 235.158 64.0459 230.784 66.5766Z" fill="#FF7B80"/><path d="M198.235 51.3229C197.679 51.6437 197.107 51.8025 196.519 51.7991C195.931 51.7958 195.382 51.6486 194.871 51.3575C194.36 51.0664 193.947 50.6472 193.631 50.0998C193.549 49.9588 193.528 49.8164 193.566 49.6725C193.605 49.5286 193.695 49.416 193.836 49.3346C193.977 49.2532 194.119 49.2317 194.263 49.2703C194.407 49.3089 194.52 49.3986 194.601 49.5396C194.816 49.9128 195.1 50.2025 195.451 50.4088C195.798 50.6068 196.166 50.7091 196.557 50.7157C196.956 50.7175 197.338 50.6131 197.703 50.4024C198.068 50.1917 198.345 49.9155 198.535 49.5738C198.728 49.2189 198.822 48.8444 198.815 48.4501C198.817 48.051 198.71 47.6648 198.495 47.2916L194.774 40.8478C194.693 40.7069 194.671 40.5644 194.71 40.4205C194.749 40.2766 194.838 40.164 194.979 40.0826C195.12 40.0012 195.263 39.9798 195.407 40.0183C195.551 40.0569 195.663 40.1466 195.745 40.2876L199.465 46.7314C199.781 47.2788 199.937 47.8464 199.934 48.4344C199.931 49.0224 199.783 49.5718 199.492 50.0826C199.201 50.5935 198.782 51.0069 198.235 51.3229ZM206.622 46.4803C206.091 46.7868 205.555 46.997 205.013 47.1111C204.474 47.2121 203.957 47.2173 203.463 47.1269C202.968 47.0365 202.526 46.8549 202.136 46.5823C201.993 46.4879 201.92 46.37 201.916 46.2287C201.915 46.0743 201.977 45.9333 202.103 45.8056C202.2 45.7054 202.319 45.6532 202.46 45.649C202.61 45.64 202.747 45.6768 202.872 45.7594C203.135 45.9281 203.442 46.0384 203.793 46.0903C204.144 46.1422 204.516 46.1263 204.91 46.0425C205.299 45.9505 205.693 45.7896 206.091 45.5598C206.53 45.306 206.879 45.0105 207.138 44.6732C207.392 44.3276 207.535 43.9629 207.568 43.5791C207.604 43.1823 207.507 42.7848 207.277 42.3867C206.985 41.8808 206.547 41.5532 205.964 41.4037C205.38 41.2543 204.661 41.3596 203.807 41.7198C202.77 42.1639 201.839 42.3034 201.014 42.1384C200.184 41.9651 199.566 41.526 199.159 40.8211C198.866 40.3152 198.745 39.7991 198.795 39.2727C198.854 38.7415 199.062 38.2399 199.419 37.768C199.772 37.2877 200.256 36.8704 200.869 36.5161C201.325 36.2528 201.783 36.088 202.243 36.0218C202.697 35.9473 203.131 35.9514 203.543 36.0338C203.959 36.1033 204.336 36.2287 204.673 36.4101C204.832 36.4949 204.931 36.6091 204.97 36.7526C205.017 36.8914 205.002 37.0275 204.924 37.1608C204.833 37.2907 204.709 37.3732 204.552 37.4084C204.404 37.4387 204.263 37.415 204.13 37.3372C203.895 37.2183 203.635 37.131 203.348 37.0752C203.065 37.0064 202.762 36.9988 202.44 37.0525C202.117 37.1062 201.766 37.2367 201.388 37.4438C200.733 37.8221 200.288 38.2671 200.053 38.7789C199.813 39.2824 199.846 39.7995 200.152 40.3303C200.315 40.6123 200.541 40.8304 200.829 40.9847C201.112 41.1308 201.474 41.1927 201.915 41.1705C202.359 41.1353 202.895 40.9916 203.523 40.7393C204.646 40.2901 205.598 40.1665 206.378 40.3685C207.161 40.5574 207.778 41.0417 208.228 41.8212C208.487 42.2691 208.634 42.715 208.669 43.1591C208.712 43.5984 208.654 44.0245 208.495 44.4373C208.338 44.8371 208.097 45.2141 207.771 45.5684C207.453 45.9178 207.07 46.2218 206.622 46.4803Z" fill="white"/><path style="mix-blend-mode:overlay" opacity="0.7" d="M238.668 21.312V9.81527C238.668 4.77188 235.125 2.7473 230.768 5.25995L193.458 26.7892C189.102 29.3019 185.559 35.4299 185.559 40.4733V70.8962C200.526 48.8247 219.091 30.9649 238.65 21.312H238.668Z" fill="url(#paint2_linear_1643_11525)"/><path d="M2.29573 225.596C0.885756 228.054 0 230.838 0 233.351V276.427C0 281.471 10.3579 288.557 14.7144 286.044L48.825 261.261C51.0485 259.977 53.055 257.754 54.5011 255.205C38.3767 246.077 19.342 233.351 2.31381 225.596H2.29573Z" fill="#F5D533"/><path d="M48.825 261.244L14.7144 286.027C10.3579 288.539 0 281.453 0 276.41V233.333C0 228.29 3.52495 222.18 7.89949 219.649L45.2097 198.12C49.5662 195.607 60.4483 200.777 60.5025 205.242L56.7245 247.56C56.7245 252.603 53.1815 258.713 48.825 261.244Z" fill="#FBEDA7"/><path d="M2.29573 225.596C0.885756 228.054 0 230.838 0 233.351V276.427C0 281.471 10.3579 288.557 14.7144 286.044L48.825 261.261C51.0485 259.977 53.055 257.754 54.5011 255.205C38.3767 246.077 19.342 233.351 2.31381 225.596H2.29573Z" fill="#F5D533"/><g style="mix-blend-mode:multiply"><path d="M2.29573 225.596C0.885756 228.054 0 230.838 0 233.351V276.427C0 281.471 10.3579 288.557 14.7144 286.044L48.825 261.261C51.0485 259.977 53.055 257.754 54.5011 255.205C38.3767 246.077 19.342 233.351 2.31381 225.596H2.29573Z" fill="#F9E88F"/></g><path d="M53.0027 264.045L15.6925 285.575C11.336 288.087 7.79297 286.045 7.79297 281.019V237.943C7.79297 232.899 11.3179 226.789 15.6925 224.259L53.0027 202.729C57.3591 200.217 60.9022 202.259 60.9022 207.285V250.361C60.9022 255.405 57.3772 261.515 53.0027 264.045Z" fill="#F5D533"/><path d="M10.4746 254.196C10.3336 254.277 10.1977 254.301 10.0669 254.266C9.94441 254.226 9.8431 254.146 9.76298 254.026C9.68287 253.907 9.65315 253.769 9.67384 253.613L10.3638 247.31L10.6033 246.691L11.2232 241.042C11.2473 240.873 11.3382 240.744 11.4958 240.653C11.6285 240.576 11.7585 240.562 11.8858 240.61C12.0166 240.645 12.1221 240.722 12.2022 240.842C12.2775 240.953 12.3083 241.074 12.2947 241.203L11.6333 247.125L11.4114 247.717L10.7368 253.846C10.703 253.998 10.6156 254.115 10.4746 254.196ZM17.2045 250.311C17.1382 250.349 17.0646 250.375 16.9839 250.388C16.8984 250.393 16.8141 250.381 16.7308 250.352L11.1555 247.848L10.6046 247.785L5.15425 245.326C5.02215 245.269 4.92674 245.181 4.868 245.06C4.80447 244.93 4.78608 244.803 4.81284 244.677C4.84789 244.546 4.93176 244.442 5.06445 244.366C5.22202 244.275 5.37994 244.261 5.5382 244.324L10.7957 246.68L11.2805 246.715L17.1004 249.326C17.2325 249.382 17.3303 249.475 17.3938 249.604C17.4656 249.729 17.4864 249.86 17.4561 249.999C17.4294 250.125 17.3455 250.229 17.2045 250.311ZM19.9541 248.723C19.8214 248.8 19.679 248.821 19.5268 248.787C19.3781 248.74 19.2654 248.651 19.1888 248.518L14.1398 239.773C14.0584 239.632 14.037 239.489 14.0756 239.346C14.1224 239.197 14.2122 239.084 14.3449 239.008C14.5439 238.893 14.7369 238.892 14.9239 239.005L23.9281 244.919L23.5051 245.164L22.8107 234.452C22.8145 234.228 22.9117 234.062 23.1025 233.951C23.2351 233.875 23.3734 233.856 23.5173 233.894C23.6612 233.933 23.7739 234.023 23.8553 234.164L28.9043 242.909C28.9809 243.042 29.0023 243.184 28.9685 243.336C28.93 243.48 28.8443 243.59 28.7117 243.667C28.5707 243.748 28.4241 243.772 28.2719 243.738C28.1232 243.691 28.0106 243.602 27.934 243.469L23.6104 235.98L23.829 235.871L24.4901 245.491C24.4898 245.701 24.3943 245.861 24.2036 245.971C23.9963 246.091 23.7895 246.077 23.5834 245.931L15.6226 240.675L15.8355 240.469L20.1591 247.958C20.2357 248.091 20.253 248.235 20.211 248.392C20.1724 248.536 20.0868 248.646 19.9541 248.723ZM32.163 241.674C32.0303 241.751 31.8879 241.772 31.7357 241.739C31.5918 241.7 31.4791 241.61 31.3978 241.469L26.3487 232.724C26.2721 232.591 26.2531 232.453 26.2917 232.309C26.3337 232.152 26.4211 232.035 26.5538 231.959C26.6865 231.882 26.8272 231.867 26.9759 231.914C27.128 231.948 27.2424 232.031 27.319 232.164L32.1167 240.474L36.9806 237.665C37.1133 237.589 37.2516 237.57 37.3955 237.608C37.5429 237.634 37.6549 237.713 37.7315 237.846C37.8081 237.978 37.823 238.119 37.7761 238.268C37.7328 238.403 37.6448 238.509 37.5121 238.586L32.163 241.674Z" fill="#79829D"/><path style="mix-blend-mode:overlay" opacity="0.7" d="M60.9022 218.783V207.286C60.9022 202.243 57.3591 200.218 53.0027 202.731L15.6925 224.26C11.336 226.773 7.79297 232.901 7.79297 237.944V268.367C22.7604 246.295 41.3251 228.436 60.8841 218.783H60.9022Z" fill="url(#paint3_linear_1643_11525)"/><path d="M412.367 534.291L413.434 548.861C413.434 548.861 415.277 557.267 408.047 563.377C400.816 569.486 390.006 567.173 382.089 563.377C375.816 560.376 357.016 551.88 349.099 539.136C347.146 535.99 342.591 528.886 350.943 524.439C356.329 521.583 367.573 525.994 375.563 527.82C380.462 528.941 388.397 530.17 388.397 530.17C388.397 530.17 395.502 525.398 402.696 528.362C409.891 531.327 412.873 528.326 412.367 534.291Z" fill="#30384F"/><path d="M381.945 519.414C381.945 519.414 380.119 534.291 394.183 537.419C408.246 540.546 418.044 536.551 419.707 528.633C420.737 523.735 425.473 477.711 428.366 451.934L391.471 423.301L381.963 519.414H381.945Z" fill="#4F5669"/><path d="M526.973 461.334C525.238 448.391 520.393 435.972 518.929 423.029L485.921 433.026C485.921 433.026 434.746 410.593 420.375 408.64C412.096 407.52 404.92 407.122 397.291 414.082C387.819 422.74 389.446 433.044 389.446 433.044L390.097 439.118L445.845 468.944C445.845 468.836 466.85 480.459 477.425 483.532C493.604 488.232 515.187 484.4 523.539 479.7C524.678 479.049 526.196 478.254 527.949 477.314C527.913 471.945 527.678 466.612 526.955 461.298L526.973 461.334Z" fill="#4F5669"/><path d="M366.633 565.004L367.699 579.574C367.699 579.574 369.543 587.98 362.312 594.089C355.082 600.199 344.272 597.886 336.354 594.089C330.082 591.089 311.282 582.593 303.364 569.849C301.412 566.703 296.857 559.599 305.208 555.152C310.595 552.296 321.839 556.707 329.829 558.533C334.727 559.653 342.663 560.883 342.663 560.883C342.663 560.883 349.767 556.11 356.962 559.075C364.156 562.04 367.139 559.039 366.633 565.004Z" fill="#3A4258"/><path d="M532.92 645.68C530.877 644.505 529.069 644.631 527.949 645.77L527.84 645.608L517.699 651.32L525.689 666.287L537.095 660.702C538.234 659.942 538.867 658.514 538.867 655.622C538.867 651.736 536.282 647.614 532.902 645.662L532.92 645.68Z" fill="#30384F"/><path d="M527.859 662.329C527.859 666.216 525.13 667.788 521.768 665.854C518.405 663.902 515.676 659.184 515.676 655.297C515.676 651.411 518.405 649.838 521.768 651.772C525.13 653.725 527.859 658.443 527.859 662.329Z" fill="#30384F"/><path d="M410.018 648.715C412.06 647.54 413.868 647.667 414.989 648.805L415.097 648.643L425.238 654.355L417.248 669.322L405.842 663.737C404.703 662.977 404.07 661.549 404.07 658.657C404.07 654.771 406.655 650.649 410.036 648.697L410.018 648.715Z" fill="#30384F"/><path d="M415.078 665.382C415.078 669.268 417.808 670.841 421.17 668.907C424.532 666.955 427.262 662.237 427.262 658.35C427.262 654.464 424.532 652.891 421.17 654.825C417.808 656.777 415.078 661.495 415.078 665.382Z" fill="#30384F"/><path d="M523.646 594.938C525.689 593.763 527.497 593.889 528.617 595.028L528.726 594.865L538.867 600.578L530.877 615.545L519.471 609.959C518.332 609.2 517.699 607.772 517.699 604.88C517.699 600.993 520.284 596.872 523.664 594.92L523.646 594.938Z" fill="#30384F"/><path d="M528.707 611.605C528.707 615.491 531.437 617.064 534.799 615.129C538.161 613.195 540.891 608.459 540.891 604.573C540.891 600.686 538.161 599.114 534.799 601.048C531.437 603 528.707 607.718 528.707 611.605Z" fill="#30384F"/><path d="M428.416 594.938C426.373 593.763 424.566 593.889 423.445 595.028L423.336 594.865L413.195 600.578L421.185 615.545L432.592 609.959C433.73 609.2 434.363 607.772 434.363 604.88C434.363 600.993 431.778 596.872 428.398 594.92L428.416 594.938Z" fill="#30384F"/><path d="M423.356 611.605C423.356 615.491 420.626 617.064 417.264 615.129C413.901 613.177 411.172 608.459 411.172 604.573C411.172 600.686 413.901 599.114 417.264 601.048C420.626 603 423.356 607.718 423.356 611.605Z" fill="#30384F"/><path d="M475.6 613.992L423.268 588.541C423.268 588.541 420.557 586.896 416.833 588.92C413.109 590.945 412.766 593.692 412.766 593.692V597.416L466.761 624.477L475.6 613.992Z" fill="#7F8492"/><path d="M469 616.033L524.387 588.556C524.387 588.556 526.809 586.911 530.533 588.936C534.257 590.96 534.311 593.708 534.311 593.708V597.432L477.568 626.517L469.018 616.033H469Z" fill="#7F8492"/><path d="M470.7 598.102H473.05C478.943 598.102 483.716 602.874 483.716 608.767V630.242H460.035V608.767C460.035 602.874 464.807 598.102 470.7 598.102Z" fill="#454C61"/><path d="M466.668 571.312V601.482C466.668 601.482 466.74 607.574 472.832 607.574C478.924 607.574 477.641 602.169 477.641 602.169V571.331H466.668V571.312Z" fill="#30384F"/><path d="M460.27 543.69V572.106C460.27 572.106 464.246 577.186 471.351 577.186C478.455 577.186 483.118 572.106 483.118 572.106V539.641L460.27 543.708V543.69Z" fill="#454C61"/><path d="M334.692 552.331C334.692 552.331 332.921 566.792 346.587 569.829C360.235 572.866 369.779 568.979 371.388 561.297C372.382 556.543 376.992 511.821 379.794 486.785L343.948 458.965L334.71 552.349L334.692 552.331Z" fill="#6E7484"/><path d="M428.42 475.218C442.954 465.926 452.86 460.738 464.953 458.985C482.379 456.454 505.373 464.227 518.225 469.632C526.504 473.121 551.034 483.497 545.286 497.036C541.2 506.653 521.099 513.613 506.385 520.717C491.67 527.821 472.563 540.33 456.331 541.342C440.098 542.354 422.347 533.732 407.632 524.097C392.918 514.462 394.436 500.597 404.089 491.975C411.88 484.997 415.749 483.352 428.438 475.236L428.42 475.218Z" fill="#0077CC"/><path d="M528.963 436.858L440.206 463.756C440.206 463.756 389.031 441.323 374.66 439.371C366.381 438.25 359.205 437.852 351.577 444.812C342.104 453.47 343.731 463.774 343.731 463.774L344.382 469.848L400.131 499.674C400.131 499.566 421.136 511.189 431.71 514.262C447.889 518.962 469.472 515.13 477.824 510.43C486.175 505.73 513.308 492.679 523.739 481.2C534.169 469.721 528.945 436.84 528.945 436.84L528.963 436.858Z" fill="#6E7484"/><path d="M396.297 505.134V519.342C396.297 519.342 398.737 533.894 413.958 542.01C429.178 550.126 452.895 556.887 464.392 552.495C475.888 548.102 519.2 525.777 528.672 520.698C538.144 515.618 542.88 512.925 544.58 508.514C546.279 504.103 544.923 490.582 544.923 490.582C544.923 490.582 520.23 510.195 491.832 519.667C463.415 529.14 452.533 534.544 438.65 531.164C424.786 527.784 396.297 505.116 396.297 505.116V505.134Z" fill="#30384F"/><path d="M458.334 549.782C454.123 543.04 456.906 535.61 461.444 529.807C452.64 532.284 446.042 532.989 438.631 531.181C424.766 527.801 396.277 505.133 396.277 505.133V519.341C396.277 519.341 398.718 533.893 413.938 542.009C428.056 549.547 449.495 555.892 461.697 553.271C460.504 552.241 459.419 551.102 458.334 549.782Z" fill="#454C61"/><path d="M410.143 651.536C410.143 651.536 405.317 643.763 412.764 641.052C420.212 638.34 461.59 617.715 461.59 617.715C461.59 617.715 470.501 619.071 470.501 622.451C470.501 625.831 471.514 629.898 471.514 629.898C471.514 629.898 426.539 650.867 422.128 653.235C417.736 655.603 414.012 653.904 410.125 651.536H410.143Z" fill="#7F8492"/><path d="M536.518 651.537C536.518 651.537 540.314 643.764 532.884 641.052C525.437 638.341 484.403 616.703 484.403 616.703C484.403 616.703 475.816 618.059 475.816 621.439V628.887C475.816 628.887 520.466 650.868 524.858 653.236C529.251 655.604 532.631 653.905 536.518 651.537Z" fill="#7F8492"/><path d="M262.996 670.338C258.784 670.338 255.367 666.922 255.367 662.71V490.512H270.606V662.71C270.606 666.922 267.189 670.338 262.977 670.338H262.996Z" fill="#EAECF0"/><path d="M262.562 490.51V670.283C262.707 670.283 262.834 670.319 262.978 670.319C267.19 670.319 270.607 666.902 270.607 662.69V490.492H262.562V490.51Z" fill="#C8CCD7"/><path d="M103.433 574.385C99.2212 574.385 95.8047 570.969 95.8047 566.757V394.559H111.043V566.757C111.043 570.969 107.627 574.385 103.415 574.385H103.433Z" fill="#EAECF0"/><path d="M103.016 394.577V574.349C103.16 574.349 103.287 574.385 103.431 574.385C107.643 574.385 111.06 570.969 111.06 566.757V394.559H103.016V394.577Z" fill="#C8CCD7"/><path d="M558.495 307.627H573.733V479.825C573.733 484.037 570.317 487.453 566.105 487.453C561.893 487.453 558.477 484.037 558.477 479.825V307.627H558.495Z" fill="#EAECF0"/><path d="M565.688 307.627V487.4C565.832 487.4 565.959 487.436 566.103 487.436C570.315 487.436 573.732 484.019 573.732 479.807V307.609H565.688V307.627Z" fill="#C8CCD7"/><path d="M406.562 391.502C402.35 391.502 398.934 388.086 398.934 383.874V211.676H414.172V383.874C414.172 388.086 410.756 391.502 406.544 391.502H406.562Z" fill="#DFE2E8"/><path d="M406.129 211.694V391.466C406.274 391.466 406.4 391.502 406.545 391.502C410.757 391.502 414.173 388.086 414.173 383.874V211.676H406.129V211.694Z" fill="#D0D3DC"/><path d="M588.665 302.657L254.446 495.625L76.1562 392.697L410.393 199.729L588.665 302.657Z" fill="#FCFCFD"/><path d="M254.393 508.315V495.571L76.1211 392.643V405.369L254.393 508.315Z" fill="#C0C4D1"/><path d="M588.594 315.437V302.711L254.375 495.679V508.405L588.594 315.437Z" fill="#A7ADBF"/><g style="mix-blend-mode:multiply" opacity="0.3"><path d="M415.166 311.93L301.807 378.506L254.121 353.542L255.242 363.539L302.404 384.345L415.564 318.763L415.166 311.93Z" fill="#616C8C"/></g><path d="M254.121 351.734L255.242 361.731L302.404 382.537L301.807 376.698L254.121 351.734Z" fill="#B0B5C5"/><path d="M371.077 285.484L415.202 310.322L301.807 376.699L254.121 351.735L371.077 285.484Z" fill="white"/><path d="M415.167 310.123L301.809 376.699L302.405 382.538L415.565 316.956L415.167 310.123Z" fill="#9098AE"/><path fill-rule="evenodd" clip-rule="evenodd" d="M270.337 352.656L266.035 350.18L270.536 347.559L274.857 350.053L270.337 352.656Z" fill="#616C8C"/><path fill-rule="evenodd" clip-rule="evenodd" d="M279.141 347.56L274.82 345.083L279.339 342.48L283.642 344.957L279.141 347.56Z" fill="#616C8C"/><path fill-rule="evenodd" clip-rule="evenodd" d="M284.781 344.305L280.461 341.81L284.98 339.207L289.282 341.684L284.781 344.305Z" fill="#616C8C"/><path fill-rule="evenodd" clip-rule="evenodd" d="M290.422 341.035L286.102 338.559L290.603 335.938L294.923 338.414L290.422 341.035Z" fill="#616C8C"/><path fill-rule="evenodd" clip-rule="evenodd" d="M299.207 335.937L294.887 333.461L299.406 330.84L303.726 333.334L299.207 335.937Z" fill="#616C8C"/><path fill-rule="evenodd" clip-rule="evenodd" d="M304.848 332.665L300.527 330.189L305.047 327.586L309.349 330.062L304.848 332.665Z" fill="#616C8C"/><path fill-rule="evenodd" clip-rule="evenodd" d="M310.484 329.41L306.164 326.934L310.683 324.312L314.985 326.789L310.484 329.41Z" fill="#616C8C"/><path fill-rule="evenodd" clip-rule="evenodd" d="M319.271 324.312L314.969 321.836L319.47 319.215L323.79 321.691L319.271 324.312Z" fill="#616C8C"/><path fill-rule="evenodd" clip-rule="evenodd" d="M324.91 321.04L320.59 318.564L325.109 315.961L329.429 318.437L324.91 321.04Z" fill="#616C8C"/><path fill-rule="evenodd" clip-rule="evenodd" d="M330.551 317.789L326.23 315.294L330.75 312.691L335.052 315.168L330.551 317.789Z" fill="#616C8C"/><path fill-rule="evenodd" clip-rule="evenodd" d="M339.57 312.544L335.25 310.068L339.769 307.465L344.071 309.941L339.57 312.544Z" fill="#616C8C"/><path fill-rule="evenodd" clip-rule="evenodd" d="M344.941 309.31L340.711 306.761L345.339 304.176L349.569 306.725L344.941 309.31Z" fill="#616C8C"/><path fill-rule="evenodd" clip-rule="evenodd" d="M350.852 306.019L346.531 303.543L351.032 300.922L355.353 303.416L350.852 306.019Z" fill="#616C8C"/><path fill-rule="evenodd" clip-rule="evenodd" d="M358.063 301.844L353.742 299.367L358.261 296.746L362.564 299.223L358.063 301.844Z" fill="#616C8C"/><path fill-rule="evenodd" clip-rule="evenodd" d="M363.703 298.572L359.383 296.095L363.884 293.492L368.204 295.969L363.703 298.572Z" fill="#616C8C"/><path fill-rule="evenodd" clip-rule="evenodd" d="M369.326 295.318L365.023 292.824L369.525 290.221L373.845 292.697L369.326 295.318Z" fill="#616C8C"/><path fill-rule="evenodd" clip-rule="evenodd" d="M377.316 299.892L372.996 297.416L377.515 294.812L381.836 297.289L377.316 299.892Z" fill="#616C8C"/><path fill-rule="evenodd" clip-rule="evenodd" d="M382.701 303L378.398 300.523L382.9 297.902L387.22 300.379L382.701 303Z" fill="#616C8C"/><path fill-rule="evenodd" clip-rule="evenodd" d="M371.673 303.164L367.371 300.688L371.872 298.066L376.193 300.543L371.673 303.164Z" fill="#616C8C"/><path fill-rule="evenodd" clip-rule="evenodd" d="M377.078 306.255L372.758 303.779L377.259 301.176L381.579 303.652L377.078 306.255Z" fill="#616C8C"/><path fill-rule="evenodd" clip-rule="evenodd" d="M366.037 306.436L361.734 303.941L366.235 301.338L370.556 303.814L366.037 306.436Z" fill="#616C8C"/><path fill-rule="evenodd" clip-rule="evenodd" d="M371.441 309.527L367.121 307.051L371.622 304.43L375.943 306.924L371.441 309.527Z" fill="#616C8C"/><path fill-rule="evenodd" clip-rule="evenodd" d="M398.662 312.166L394.359 309.689L398.86 307.068L403.181 309.563L398.662 312.166Z" fill="#616C8C"/><path fill-rule="evenodd" clip-rule="evenodd" d="M393.043 315.437L388.723 312.961L393.224 310.34L397.544 312.816L393.043 315.437Z" fill="#616C8C"/><path fill-rule="evenodd" clip-rule="evenodd" d="M387.402 318.711L383.082 316.216L387.601 313.613L391.903 316.09L387.402 318.711Z" fill="#616C8C"/><path fill-rule="evenodd" clip-rule="evenodd" d="M387.638 312.33L383.336 309.853L387.837 307.25L392.157 309.726L387.638 312.33Z" fill="#616C8C"/><path fill-rule="evenodd" clip-rule="evenodd" d="M351.395 314.914L347.074 312.437L351.575 309.834L355.896 312.311L351.395 314.914Z" fill="#616C8C"/><path fill-rule="evenodd" clip-rule="evenodd" d="M345.754 318.186L341.434 315.709L345.935 313.088L350.255 315.582L345.754 318.186Z" fill="#616C8C"/><path fill-rule="evenodd" clip-rule="evenodd" d="M340.113 321.457L335.793 318.981L340.312 316.359L344.614 318.836L340.113 321.457Z" fill="#616C8C"/><path fill-rule="evenodd" clip-rule="evenodd" d="M334.473 324.712L330.152 322.236L334.672 319.633L338.974 322.109L334.473 324.712Z" fill="#616C8C"/><path fill-rule="evenodd" clip-rule="evenodd" d="M328.832 327.982L324.512 325.506L329.031 322.885L333.351 325.379L328.832 327.982Z" fill="#616C8C"/><path fill-rule="evenodd" clip-rule="evenodd" d="M323.193 331.254L318.891 328.777L323.392 326.156L327.712 328.633L323.193 331.254Z" fill="#616C8C"/><path fill-rule="evenodd" clip-rule="evenodd" d="M317.552 334.509L313.25 332.033L317.751 329.43L322.071 331.906L317.552 334.509Z" fill="#616C8C"/><path fill-rule="evenodd" clip-rule="evenodd" d="M311.934 337.781L307.613 335.305L312.114 332.684L316.435 335.178L311.934 337.781Z" fill="#616C8C"/><path fill-rule="evenodd" clip-rule="evenodd" d="M306.293 341.053L301.973 338.576L306.492 335.955L310.794 338.432L306.293 341.053Z" fill="#616C8C"/><path fill-rule="evenodd" clip-rule="evenodd" d="M300.652 344.306L296.332 341.83L301.068 339.082L305.388 341.577L300.652 344.306Z" fill="#616C8C"/><path fill-rule="evenodd" clip-rule="evenodd" d="M295.012 347.578L290.691 345.101L295.427 342.354L299.748 344.83L295.012 347.578Z" fill="#616C8C"/><path fill-rule="evenodd" clip-rule="evenodd" d="M289.373 350.849L285.07 348.373L289.788 345.625L294.109 348.102L289.373 350.849Z" fill="#616C8C"/><path fill-rule="evenodd" clip-rule="evenodd" d="M283.969 353.978L279.648 351.501L284.168 348.898L288.47 351.375L283.969 353.978Z" fill="#616C8C"/><path fill-rule="evenodd" clip-rule="evenodd" d="M278.328 357.25L274.008 354.773L278.527 352.152L282.829 354.629L278.328 357.25Z" fill="#616C8C"/><path fill-rule="evenodd" clip-rule="evenodd" d="M292.066 355.514L287.746 353.037L292.265 350.416L296.568 352.893L292.066 355.514Z" fill="#616C8C"/><path fill-rule="evenodd" clip-rule="evenodd" d="M297.707 352.242L293.387 349.765L297.888 347.162L302.208 349.639L297.707 352.242Z" fill="#616C8C"/><path fill-rule="evenodd" clip-rule="evenodd" d="M303.344 348.988L299.023 346.494L303.525 343.891L307.845 346.367L303.344 348.988Z" fill="#616C8C"/><path fill-rule="evenodd" clip-rule="evenodd" d="M308.966 345.715L304.664 343.238L309.165 340.617L313.485 343.094L308.966 345.715Z" fill="#616C8C"/><path fill-rule="evenodd" clip-rule="evenodd" d="M314.607 342.443L310.305 339.966L314.806 337.363L319.126 339.84L314.607 342.443Z" fill="#616C8C"/><path fill-rule="evenodd" clip-rule="evenodd" d="M320.246 339.191L315.926 336.697L320.445 334.094L324.765 336.57L320.246 339.191Z" fill="#616C8C"/><path fill-rule="evenodd" clip-rule="evenodd" d="M325.887 335.918L321.566 333.441L326.086 330.82L330.388 333.297L325.887 335.918Z" fill="#616C8C"/><path fill-rule="evenodd" clip-rule="evenodd" d="M331.291 332.772L326.988 330.296L331.724 327.566L336.027 330.043L331.291 332.772Z" fill="#616C8C"/><path fill-rule="evenodd" clip-rule="evenodd" d="M336.934 329.519L332.613 327.043L337.349 324.295L341.67 326.771L336.934 329.519Z" fill="#616C8C"/><path fill-rule="evenodd" clip-rule="evenodd" d="M342.57 326.248L338.25 323.771L342.986 321.023L347.306 323.5L342.57 326.248Z" fill="#616C8C"/><path fill-rule="evenodd" clip-rule="evenodd" d="M348.211 322.976L343.891 320.5L348.41 317.896L352.712 320.373L348.211 322.976Z" fill="#616C8C"/><path fill-rule="evenodd" clip-rule="evenodd" d="M353.852 319.723L349.531 317.246L354.05 314.625L358.353 317.101L353.852 319.723Z" fill="#616C8C"/><path fill-rule="evenodd" clip-rule="evenodd" d="M355.404 325.036L350.867 322.433L355.386 319.83L359.906 322.433L355.404 325.036Z" fill="#616C8C"/><path fill-rule="evenodd" clip-rule="evenodd" d="M349.765 328.308L345.246 325.705L349.747 323.084L354.284 325.687L349.765 328.308Z" fill="#616C8C"/><path fill-rule="evenodd" clip-rule="evenodd" d="M344.125 331.562L339.605 328.959L344.107 326.355L348.644 328.959L344.125 331.562Z" fill="#616C8C"/><path fill-rule="evenodd" clip-rule="evenodd" d="M338.488 334.835L333.969 332.232L338.47 329.629L343.007 332.232L338.488 334.835Z" fill="#616C8C"/><path fill-rule="evenodd" clip-rule="evenodd" d="M332.865 338.107L328.328 335.504L332.829 332.883L337.366 335.486L332.865 338.107Z" fill="#616C8C"/><path fill-rule="evenodd" clip-rule="evenodd" d="M327.225 341.36L322.688 338.757L327.207 336.154L331.726 338.757L327.225 341.36Z" fill="#616C8C"/><path fill-rule="evenodd" clip-rule="evenodd" d="M321.584 344.632L317.047 342.029L321.566 339.426L326.085 342.029L321.584 344.632Z" fill="#616C8C"/><path fill-rule="evenodd" clip-rule="evenodd" d="M315.943 347.904L311.406 345.301L315.925 342.68L320.463 345.283L315.943 347.904Z" fill="#616C8C"/><path fill-rule="evenodd" clip-rule="evenodd" d="M310.304 351.157L305.785 348.554L310.521 345.824L315.04 348.427L310.304 351.157Z" fill="#616C8C"/><path fill-rule="evenodd" clip-rule="evenodd" d="M304.664 354.429L300.145 351.826L304.881 349.078L309.4 351.681L304.664 354.429Z" fill="#616C8C"/><path fill-rule="evenodd" clip-rule="evenodd" d="M299.045 357.702L294.508 355.099L299.244 352.352L303.763 354.955L299.045 357.702Z" fill="#616C8C"/><path fill-rule="evenodd" clip-rule="evenodd" d="M307.141 358.966L302.82 356.49L307.339 353.887L311.66 356.363L307.141 358.966Z" fill="#616C8C"/><path fill-rule="evenodd" clip-rule="evenodd" d="M312.781 355.713L308.461 353.236L312.98 350.615L317.282 353.092L312.781 355.713Z" fill="#616C8C"/><path fill-rule="evenodd" clip-rule="evenodd" d="M318.422 352.441L314.102 349.965L318.621 347.344L322.923 349.838L318.422 352.441Z" fill="#616C8C"/><path fill-rule="evenodd" clip-rule="evenodd" d="M324.063 349.169L319.742 346.693L324.243 344.09L328.564 346.566L324.063 349.169Z" fill="#616C8C"/><path fill-rule="evenodd" clip-rule="evenodd" d="M329.681 345.914L325.379 343.438L329.88 340.816L334.2 343.293L329.681 345.914Z" fill="#616C8C"/><path fill-rule="evenodd" clip-rule="evenodd" d="M335.322 342.643L331.02 340.166L335.521 337.545L339.841 340.021L335.322 342.643Z" fill="#616C8C"/><path fill-rule="evenodd" clip-rule="evenodd" d="M340.961 339.373L336.641 336.896L341.16 334.293L345.48 336.769L340.961 339.373Z" fill="#616C8C"/><path fill-rule="evenodd" clip-rule="evenodd" d="M346.602 336.117L342.281 333.641L346.8 331.02L351.103 333.496L346.602 336.117Z" fill="#616C8C"/><path fill-rule="evenodd" clip-rule="evenodd" d="M352.242 332.846L347.922 330.369L352.441 327.748L356.743 330.225L352.242 332.846Z" fill="#616C8C"/><path fill-rule="evenodd" clip-rule="evenodd" d="M357.883 329.574L353.562 327.097L358.082 324.494L362.384 326.971L357.883 329.574Z" fill="#616C8C"/><path fill-rule="evenodd" clip-rule="evenodd" d="M374.783 319.775L370.48 317.298L374.982 314.695L379.302 317.172L374.783 319.775Z" fill="#616C8C"/><path fill-rule="evenodd" clip-rule="evenodd" d="M377.244 324.584L372.941 322.107L380.371 317.787L384.691 320.264L377.244 324.584Z" fill="#616C8C"/><path fill-rule="evenodd" clip-rule="evenodd" d="M368.91 329.41L364.59 326.934L371.802 322.758L376.123 325.234L368.91 329.41Z" fill="#616C8C"/><path fill-rule="evenodd" clip-rule="evenodd" d="M360.556 334.238L356.254 331.762L363.466 327.586L367.787 330.062L360.556 334.238Z" fill="#616C8C"/><path fill-rule="evenodd" clip-rule="evenodd" d="M316.361 359.851L312.059 357.375L319.271 353.199L323.591 355.676L316.361 359.851Z" fill="#616C8C"/><path fill-rule="evenodd" clip-rule="evenodd" d="M308.027 364.678L303.707 362.201L310.92 358.025L315.24 360.502L308.027 364.678Z" fill="#616C8C"/><path fill-rule="evenodd" clip-rule="evenodd" d="M299.677 369.522L295.375 367.045L302.588 362.852L306.908 365.328L299.677 369.522Z" fill="#616C8C"/><path fill-rule="evenodd" clip-rule="evenodd" d="M363.523 326.319L359.203 323.842L369.127 318.094L373.429 320.57L363.523 326.319Z" fill="#616C8C"/><path fill-rule="evenodd" clip-rule="evenodd" d="M357.013 311.66L352.711 309.183L359.02 305.514L363.34 307.99L357.013 311.66Z" fill="#616C8C"/><path fill-rule="evenodd" clip-rule="evenodd" d="M283.712 360.34L279.41 357.863L286.623 353.688L290.925 356.164L283.712 360.34Z" fill="#616C8C"/><path fill-rule="evenodd" clip-rule="evenodd" d="M294.289 366.414L289.969 363.937L301.7 357.141L306.021 359.635L294.289 366.414Z" fill="#616C8C"/><path fill-rule="evenodd" clip-rule="evenodd" d="M289.119 363.448L284.582 360.845L293.602 355.621L298.14 358.224L289.119 363.448Z" fill="#616C8C"/><path fill-rule="evenodd" clip-rule="evenodd" d="M324.711 355.024L320.391 352.529L355.116 332.41L359.436 334.905L324.711 355.024Z" fill="#616C8C"/><path fill-rule="evenodd" clip-rule="evenodd" d="M360.828 321.656L356.508 319.18L359.581 317.39C359.87 317.228 359.816 317.065 359.761 316.866C359.761 316.83 359.544 316.83 359.544 316.83C359.544 316.721 359.671 316.649 359.544 316.577L355.098 313.956L364.353 308.623L373.879 314.082L360.828 321.656Z" fill="#616C8C"/><g style="mix-blend-mode:multiply" opacity="0.3"><path d="M280.312 352.059C280.312 352.059 285.735 354.68 286.856 357.663C287.977 360.664 290.978 365.328 295.641 367.768C300.323 370.19 304.427 370.769 304.427 370.769C304.427 370.769 308.91 374.691 312.272 377.132C315.634 379.572 354.915 402.005 362.019 404.427C369.123 406.85 387.634 407.049 399.04 404.807C410.446 402.566 421.111 398.824 421.111 398.824C421.111 398.824 420.931 389.478 409.705 385.736C398.48 381.994 364.26 379.934 359.597 376.951C354.915 373.95 314.152 357.5 314.152 357.5C314.152 357.5 287.218 340.671 284.235 342.913C281.234 345.154 280.312 352.077 280.312 352.077V352.059Z" fill="#616C8C"/></g><g style="mix-blend-mode:multiply" opacity="0.3"><path d="M359.217 303.433C359.217 303.433 360.898 305.494 365.02 306.795C369.141 308.097 371.184 308.296 371.744 310.537C372.305 312.779 360.519 312.038 360.519 312.038C360.519 312.038 361.459 314.46 364.261 315.219C367.063 315.978 368.563 317.641 370.804 319.341C373.046 321.022 378.469 322.341 380.909 322.142C383.332 321.962 385.266 322.703 385.266 322.703L385.88 326.065L433.621 348.498L443.165 341.394C443.165 341.394 416.43 319.142 406.325 317.081C396.22 315.02 379.21 306.235 378.27 305.855C377.33 305.476 364.586 297.811 363.664 298.57C362.742 299.312 359.199 303.433 359.199 303.433H359.217Z" fill="#616C8C"/></g><path d="M473.551 472.668C466.447 460.484 467.459 445.264 474.563 435.123C489.784 415.853 514.133 413.81 534.433 400.632C538.717 398.065 545.876 396.963 549.22 400.325C547.467 391.865 543.092 390.292 540.182 390.148C533.764 389.804 528.812 394.107 505.348 405.712C477.275 419.577 472.539 418.221 466.122 423.644C459.704 429.049 455.981 441.901 456.993 455.766C458.005 469.631 468.146 480.802 476.263 480.459C478.215 480.386 479.932 480.079 481.776 479.519C478.106 478.253 475.07 475.723 473.551 472.686V472.668Z" fill="#4D4D4D"/><path d="M534.434 400.632C514.134 413.828 489.785 415.852 474.564 435.122C467.46 445.263 466.448 460.483 473.552 472.667C475.07 475.704 478.107 478.235 481.777 479.5C487.634 477.729 494.846 473.282 515.164 464.551C530.747 457.844 539.008 452.042 543.581 443.582C546.835 437.526 548.064 430.295 549.329 419.576C550.36 410.845 550.143 404.681 549.239 400.342C545.877 396.962 538.736 398.083 534.452 400.65L534.434 400.632Z" fill="#333333"/><path d="M394.105 314.786C394.105 314.786 387.398 300.559 384.47 298.553C381.541 296.546 374.473 296.564 369.665 296.094C366.05 295.751 358.512 297.36 358.024 300.577C357.536 303.795 359.958 304.337 363.157 305.404C366.375 306.488 370.858 307.428 372.286 308.585C373.714 309.742 373.515 311.767 371.003 311.261C368.508 310.773 364.929 308.115 362.055 308.856C359.795 309.435 359.271 312.869 364.097 314.153C368.906 315.436 367.695 316.539 370.623 317.841C373.551 319.142 377.185 321.42 380.493 321.094C384.361 320.697 391.99 326.029 391.99 326.029L401.39 318.528L394.105 314.768V314.786Z" fill="#FFC1C3"/><path d="M496.255 311.496L457.101 321.022L406.595 308.64C406.595 308.64 396.454 304.5 388.843 313.123C382.806 321.872 385.554 324.836 385.554 324.836L451.588 354.301C451.588 354.301 460.951 359.742 476.588 357.212C490.977 354.88 533.529 365.672 533.529 365.672C533.529 365.672 538.988 348.553 530.564 329.681C521.671 309.779 502.365 308.766 496.273 311.478L496.255 311.496Z" fill="#3FA9F5"/><path d="M486.097 311.694C486.097 311.694 459 317.84 442.496 330.53C428.089 341.611 419.521 367.37 420.913 413.086C421.871 444.919 420.208 445.805 422.178 456.271C423.389 462.706 429.337 472.197 438.682 477.023C449.781 482.735 459.958 487.164 475.522 483.802C491.195 480.421 526.318 462.634 526.318 462.634C526.318 462.634 537.037 438.682 537.037 426.517C537.037 414.351 538.827 370.118 533.928 348.335C525.667 311.495 497.088 309.29 486.097 311.712V311.694Z" fill="#69BCF7"/><path d="M489.624 297.25L492.372 322.413C492.372 322.413 491.45 332.698 476.916 335.265C462.021 337.886 459.255 327.781 459.255 327.781L459.635 321.762L457.719 307.915L489.624 297.268V297.25Z" fill="#FFC1C3"/><path d="M432.789 251.353C432.789 251.353 430.06 277.492 430.511 286.205C430.909 294.14 434.561 310.12 445.642 314.169C454.843 317.532 465.743 311.801 477.113 303.793C488.501 295.785 492.135 293.833 493.816 287.091C495.497 280.348 507.084 247.973 507.084 247.973L432.771 251.353H432.789Z" fill="#FFC1C3"/><path d="M508.242 243.13C506.127 232.229 499.312 224.818 492.064 220.968C477.729 213.375 463.394 213.755 450.379 217.804C438.123 221.618 432.284 227.276 429.808 232.229C428.452 234.941 427.747 237.435 427.476 239.695C427.422 242.877 428.072 246.04 429.555 248.95C431.651 253.036 435.61 255.729 438.521 259.182C440.889 261.984 442.335 265.129 442.696 268.78C443.022 272.034 443.275 275.668 443.058 279.156L446.962 280.584C446.962 280.584 446.221 271.221 451.59 270.534C459.815 269.485 460.411 281.362 459.182 284.869C453.922 299.836 461.984 302.566 461.984 302.566C471.348 306.416 481.326 307.41 489.822 301.138C496.872 295.931 501.771 288.158 504.627 279.952C508.55 268.708 510.502 254.825 508.242 243.112V243.13Z" fill="#30384F"/><path d="M314.315 373.227L305.078 368.292C305.078 368.292 302.331 370.172 296.51 366.882C289.514 362.923 289.858 359.073 287.128 356.741C283.585 353.704 281.597 352.999 277.999 350.396C273.842 347.395 278.252 339.749 284.597 339.496C286.658 339.406 289.623 339.586 295.751 342.027C299.547 343.545 304.554 348.968 304.554 348.968C304.554 348.968 301.698 344.395 300.324 343.039C298.95 341.701 300.848 338.791 303.632 341.105C306.398 343.419 310.646 348.878 310.79 350.812C310.935 352.746 313.104 358.44 313.104 358.44L321.89 363.52L314.333 373.227H314.315Z" fill="#FFC1C3"/><path d="M431.272 342.822L374.131 373.245L323.95 353.415C323.95 353.415 314.135 348.281 306.904 359.796C303.198 365.689 306.38 371.817 306.38 371.817C306.38 371.817 349.547 398.263 364.659 402.999C372.125 405.349 380.151 406.181 395.932 404.843C413.502 403.361 427.656 396.998 439.334 391.087C447.396 387.001 457.79 374.131 454.645 358.368C451.409 342.189 441.449 338.773 431.29 342.84L431.272 342.822Z" fill="#3FA9F5"/><path d="M498.932 398.264C483.549 404.175 467.479 410.447 461.387 412.129C455.295 413.828 447.865 426.337 448.534 440.545C449.203 454.753 451.571 467.262 456.994 472.342C462.399 477.421 472.215 482.826 487.779 475.379C503.343 467.931 524.637 458.802 530.729 454.41C536.821 450.017 542.424 444.666 544.594 438.177C546.962 431.073 549.33 416.539 548.661 402.656C548.046 390.039 540.888 378.307 529.048 383.712C517.207 389.117 512.128 393.184 498.95 398.264H498.932Z" fill="#0077CC"/><path d="M466.124 423.626C472.541 418.221 477.277 419.559 505.35 405.694C528.814 394.107 533.767 389.805 540.184 390.13C544.595 390.365 552.368 393.854 549.313 419.559C548.048 430.279 546.818 437.509 543.565 443.565C539.009 452.025 530.73 457.827 515.148 464.534C488.431 476.031 484.363 480.098 476.247 480.423C468.131 480.767 457.99 469.595 456.977 455.73C455.965 441.866 459.689 429.013 466.106 423.608L466.124 423.626Z" fill="#30384F"/><path d="M504.66 436.984L520.965 428.723C520.965 428.723 525.358 426.048 529.335 439.551C530.871 444.739 530.401 460.195 530.437 476.428C530.492 502.386 530.329 531.417 530.329 531.417L514.024 539.678C514.024 539.678 512.903 529.067 512.813 515.419C512.614 487.4 512.415 444.197 504.66 436.984Z" fill="#596072"/><path d="M504.662 436.985L504.589 523.066L495.895 520.354V531.182L514.025 539.678V455.116C514.025 455.116 513.628 446.818 510.265 441.468C504.626 432.502 504.644 437.003 504.644 437.003L504.662 436.985Z" fill="#454C61"/><g opacity="0.8"><path d="M181.09 300.884L54.5717 375.577L53.0532 374.818L53.0352 282.41L181.09 208.477L182.59 209.236L181.09 300.884Z" fill="#75C1F8"/><path d="M182.625 301.642L54.5703 375.558V283.15L182.607 209.234L182.625 301.642Z" fill="white"/><path d="M182.607 218.146L54.5703 292.062V283.15L182.607 209.234V218.146Z" fill="#3FA9F5"/><path d="M116.139 270.965L66.2656 299.743V297.755L116.139 268.977V270.965Z" fill="#898E9B"/><path d="M116.139 279.535L66.2656 308.331V306.343L116.139 277.547V279.535Z" fill="#898E9B"/><path d="M116.139 288.102L66.2656 316.898V314.909L116.139 286.113V288.102Z" fill="#898E9B"/><path d="M116.139 296.69L66.2656 325.468V323.479L116.139 294.701V296.69Z" fill="#898E9B"/><path d="M116.139 305.258L66.2656 334.036V332.048L116.139 303.27V305.258Z" fill="#898E9B"/><path d="M171.492 293.362L129.645 317.531V258.908L171.492 234.758V293.362Z" fill="#A9D8FA"/><path d="M116.139 313.826L66.2656 342.622V340.634L116.139 311.838V313.826Z" fill="#898E9B"/></g><g style="mix-blend-mode:multiply" opacity="0.3"><path d="M232.88 316.684V316.883L232.916 316.901C233.061 317.498 233.531 318.094 234.326 318.564L259.525 333.116C260.555 333.713 261.929 334.002 263.303 333.966C263.918 333.966 264.532 333.875 265.111 333.731C265.165 333.731 265.237 333.695 265.291 333.676C265.508 333.622 265.743 333.55 265.942 333.478C266.213 333.369 266.466 333.261 266.719 333.116L335.194 293.582C335.682 293.293 336.043 292.968 336.278 292.624C336.314 292.588 336.333 292.552 336.351 292.498C336.477 292.299 336.586 292.1 336.622 291.883C336.622 291.847 336.622 291.811 336.622 291.793C336.658 291.63 336.658 291.486 336.658 291.377C336.658 290.943 336.586 286.171 336.586 286.171L332.717 288.015L309.977 274.891C307.988 273.752 304.771 273.752 302.8 274.891L252.222 304.103L237.797 312.436C237.797 312.436 237.743 312.382 237.724 312.346C236.369 310.99 232.844 311.948 232.844 311.948L232.88 316.323C232.88 316.449 232.88 316.576 232.88 316.702V316.684Z" fill="#616C8C"/></g><path d="M350.253 111.985C350.253 111.985 348.355 110.394 347.072 109.653C346.258 109.183 345.698 108.893 345.318 108.713C345.228 108.658 345.138 108.622 345.047 108.586C344.812 108.478 344.686 108.442 344.686 108.442C343.999 108.297 343.185 108.442 342.299 108.966L196.186 193.329C193.872 194.667 191.992 197.921 191.992 200.596V307.61C191.992 308.93 192.462 309.852 193.185 310.303C193.185 310.303 197.252 313.593 198.482 313.539C199.693 313.485 199.693 309.309 199.693 309.309L199.349 308.207L342.299 225.687C344.613 224.349 346.493 221.095 346.493 218.42V121.619C346.602 121.547 346.71 121.475 346.801 121.384C348.753 119.631 350.235 112.021 350.235 112.021L350.253 111.985Z" fill="#B0B5C5"/><path d="M346.494 133.604V121.583C346.602 121.511 346.71 121.439 346.819 121.348C348.771 119.595 350.253 111.985 350.253 111.985C350.253 111.985 348.355 110.394 347.072 109.653C346.259 109.183 345.698 108.893 345.319 108.713C345.228 108.658 345.138 108.622 345.047 108.586C344.812 108.478 344.686 108.442 344.686 108.442C343.999 108.297 343.186 108.442 342.3 108.966L196.186 193.329C195.047 193.98 194.017 195.101 193.258 196.403L210.485 207.791L346.385 133.713C346.385 133.713 346.421 133.677 346.494 133.622V133.604Z" fill="#F3F3F4"/><path d="M336.64 290.077C336.64 290.077 336.64 290.004 336.64 289.986C336.676 289.824 336.676 289.679 336.676 289.57C336.676 289.137 336.604 284.364 336.604 284.364L332.735 286.208L309.995 273.085C308.006 271.946 304.789 271.946 302.8 273.085L237.797 310.63C237.797 310.63 237.743 310.576 237.724 310.539C236.369 309.184 232.844 310.142 232.844 310.142L232.88 314.516C232.88 314.643 232.88 314.769 232.88 314.896V315.095L232.916 315.113C233.061 315.709 233.531 316.306 234.326 316.776L259.525 331.328C261.513 332.466 264.731 332.466 266.701 331.328L335.176 291.794C335.664 291.505 336.025 291.179 336.26 290.836C336.296 290.8 336.314 290.764 336.333 290.709C336.459 290.51 336.568 290.312 336.604 290.095L336.64 290.077Z" fill="#A7ADBF"/><path d="M336.604 284.364L332.736 286.208L309.996 273.085C308.007 271.946 304.79 271.946 302.801 273.085L252.223 302.296L263.304 317.662V332.177C264.551 332.159 265.78 331.87 266.72 331.328L335.194 291.794C335.683 291.505 336.044 291.179 336.279 290.836C336.315 290.8 336.333 290.764 336.351 290.709C336.478 290.51 336.586 290.312 336.623 290.095C336.623 290.059 336.623 290.022 336.623 290.004C336.659 289.842 336.659 289.697 336.659 289.589C336.659 289.155 336.586 284.382 336.586 284.382L336.604 284.364Z" fill="#8189A3"/><path d="M335.196 287.147L266.722 326.681C264.734 327.82 261.516 327.82 259.546 326.681L234.347 312.129C232.358 310.991 232.358 309.129 234.347 307.972L302.821 268.438C304.81 267.299 308.027 267.299 310.016 268.438L335.214 282.99C337.203 284.129 337.203 285.991 335.214 287.147H335.196Z" fill="#E2E3E6"/><path d="M294.035 292.606L275.795 303.126L275.777 263.972L294.035 253.434V292.606Z" fill="#8189A3"/><path d="M275.814 302.71L269.469 299.059V259.887L275.814 263.556V302.71Z" fill="#A7ADBF"/><path d="M345.12 222.851L202.586 305.118V202.261L345.102 119.977L345.12 222.851Z" fill="url(#paint4_linear_1643_11525)"/><path d="M228.543 240.884C227.635 241.409 226.919 241.217 226.394 240.309L225.215 238.265C224.949 237.805 224.586 237.708 224.126 237.974C224.033 238.027 223.933 238.043 223.826 238.019C223.725 237.992 223.648 237.932 223.594 237.838C223.537 237.74 223.522 237.64 223.549 237.539C223.582 237.434 223.645 237.355 223.738 237.301C224.198 237.036 224.295 236.673 224.03 236.213L222.85 234.17C222.322 233.256 222.513 232.537 223.421 232.013C223.514 231.959 223.613 231.948 223.717 231.981C223.818 232.008 223.897 232.071 223.954 232.17C224.008 232.263 224.021 232.36 223.994 232.461C223.967 232.562 223.907 232.64 223.814 232.694C223.354 232.959 223.257 233.322 223.522 233.782L224.702 235.825C224.83 236.046 224.913 236.258 224.953 236.46C224.992 236.663 224.993 236.86 224.956 237.052C225.328 237.171 225.638 237.446 225.887 237.877L227.067 239.92C227.329 240.374 227.69 240.469 228.15 240.203C228.243 240.149 228.34 240.136 228.441 240.163C228.545 240.196 228.624 240.259 228.678 240.352C228.735 240.451 228.75 240.551 228.723 240.652C228.696 240.753 228.636 240.831 228.543 240.884ZM228.832 238.179C228.692 238.26 228.544 238.28 228.388 238.238C228.232 238.196 228.113 238.105 228.033 237.965C227.949 237.82 227.928 237.669 227.969 237.513C228.017 237.353 228.108 237.235 228.242 237.158C228.381 237.077 228.531 237.061 228.691 237.108C228.847 237.15 228.965 237.241 229.046 237.381C229.123 237.514 229.142 237.662 229.104 237.824C229.068 237.977 228.977 238.095 228.832 238.179ZM233.331 235.512C232.86 235.784 232.365 235.949 231.848 236.007C231.336 236.062 230.831 236.02 230.332 235.881C229.835 235.734 229.378 235.501 228.961 235.182C228.541 234.858 228.192 234.454 227.913 233.971C227.637 233.494 227.463 232.997 227.39 232.48C227.319 231.955 227.346 231.442 227.469 230.944C227.599 230.442 227.815 229.984 228.119 229.568C228.424 229.143 228.816 228.793 229.293 228.517C229.712 228.275 230.129 228.116 230.543 228.04C230.957 227.964 231.401 227.968 231.876 228.051C231.952 228.061 232.01 228.094 232.049 228.149C232.091 228.194 232.116 228.25 232.123 228.316C232.126 228.376 232.111 228.431 232.078 228.481C232.093 228.534 232.085 228.586 232.051 228.636C232.018 228.687 231.968 228.727 231.901 228.758C231.839 228.786 231.766 228.794 231.681 228.781C231.339 228.714 231.008 228.711 230.686 228.772C230.361 228.828 230.021 228.958 229.666 229.163C229.288 229.382 228.976 229.663 228.732 230.006C228.493 230.345 228.325 230.718 228.226 231.125C228.126 231.531 228.103 231.948 228.156 232.376C228.215 232.8 228.355 233.204 228.577 233.588C228.805 233.984 229.088 234.313 229.426 234.576C229.77 234.835 230.143 235.024 230.545 235.141C230.946 235.259 231.354 235.299 231.767 235.262C232.183 235.216 232.58 235.084 232.958 234.865C233.279 234.681 233.551 234.453 233.776 234.184C234 233.915 234.184 233.607 234.326 233.261C234.362 233.163 234.421 233.097 234.504 233.065C234.592 233.03 234.682 233.024 234.774 233.049C234.866 233.074 234.938 233.132 234.992 233.226C235.019 233.272 235.035 233.321 235.042 233.372C235.05 233.413 235.049 233.465 235.037 233.526C234.898 233.971 234.679 234.357 234.38 234.685C234.077 235.008 233.727 235.283 233.331 235.512ZM240.121 231.592C239.615 231.884 239.099 232.066 238.573 232.136C238.047 232.207 237.536 232.176 237.04 232.043C236.55 231.907 236.095 231.677 235.675 231.352C235.261 231.025 234.908 230.608 234.616 230.102C234.327 229.601 234.144 229.089 234.067 228.567C233.996 228.041 234.025 227.532 234.152 227.04C234.285 226.544 234.513 226.086 234.837 225.666C235.161 225.246 235.577 224.89 236.083 224.597C236.584 224.308 237.097 224.128 237.623 224.058C238.148 223.987 238.659 224.018 239.155 224.151C239.651 224.284 240.106 224.514 240.52 224.841C240.94 225.165 241.295 225.578 241.584 226.078C241.876 226.585 242.058 227.101 242.128 227.627C242.205 228.149 242.177 228.658 242.044 229.154C241.911 229.65 241.683 230.108 241.358 230.528C241.034 230.948 240.622 231.302 240.121 231.592ZM239.748 230.945C240.15 230.713 240.482 230.429 240.745 230.09C241.004 229.747 241.185 229.374 241.288 228.974C241.393 228.564 241.416 228.147 241.357 227.723C241.295 227.293 241.147 226.874 240.911 226.467C240.679 226.065 240.394 225.733 240.056 225.47C239.715 225.201 239.342 225.013 238.938 224.905C238.537 224.787 238.124 224.758 237.7 224.816C237.272 224.869 236.858 225.011 236.456 225.243C236.049 225.479 235.715 225.768 235.456 226.112C235.193 226.45 235.009 226.824 234.904 227.234C234.802 227.634 234.782 228.05 234.843 228.48C234.902 228.904 235.047 229.317 235.279 229.718C235.514 230.126 235.803 230.464 236.144 230.733C236.482 230.995 236.852 231.185 237.253 231.303C237.658 231.411 238.073 231.439 238.501 231.386C238.925 231.328 239.341 231.181 239.748 230.945ZM245.3 228.485C245.201 228.542 245.102 228.557 245 228.53C244.899 228.503 244.82 228.44 244.763 228.341L241.219 222.202C241.162 222.103 241.147 222.003 241.174 221.902C241.201 221.801 241.264 221.722 241.363 221.665L242.935 220.758C243.435 220.469 243.941 220.289 244.452 220.219C244.965 220.14 245.462 220.168 245.943 220.302C246.421 220.43 246.86 220.653 247.262 220.972C247.669 221.288 248.017 221.696 248.307 222.197C248.596 222.698 248.777 223.206 248.85 223.723C248.925 224.23 248.901 224.726 248.776 225.209C248.648 225.686 248.424 226.131 248.102 226.541C247.783 226.943 247.373 227.288 246.872 227.577L245.3 228.485ZM245.288 227.677L246.519 226.966C247.055 226.657 247.458 226.265 247.727 225.791C247.999 225.308 248.131 224.79 248.122 224.236C248.109 223.677 247.947 223.127 247.634 222.585C247.322 222.044 246.928 221.631 246.453 221.346C245.975 221.056 245.46 220.91 244.909 220.91C244.364 220.907 243.823 221.06 243.288 221.369L242.057 222.08L245.288 227.677ZM252.02 224.605C251.921 224.662 251.821 224.678 251.72 224.65C251.619 224.623 251.54 224.56 251.483 224.461L247.939 218.323C247.882 218.224 247.867 218.124 247.894 218.023C247.921 217.922 247.984 217.843 248.083 217.786L252.178 215.421C252.271 215.367 252.368 215.354 252.469 215.381C252.573 215.399 252.653 215.457 252.71 215.556C252.761 215.644 252.769 215.74 252.736 215.844C252.709 215.945 252.649 216.022 252.556 216.076L248.801 218.244L250.193 220.654L252.926 219.076C253.025 219.019 253.125 219.004 253.226 219.031C253.327 219.058 253.404 219.118 253.458 219.211C253.512 219.304 253.525 219.401 253.498 219.502C253.471 219.603 253.408 219.682 253.309 219.74L250.576 221.318L251.982 223.754L255.737 221.586C255.83 221.532 255.927 221.519 256.028 221.546C256.135 221.57 256.214 221.625 256.264 221.712C256.321 221.811 256.334 221.913 256.301 222.017C256.27 222.113 256.209 222.187 256.115 222.241L252.02 224.605ZM258.477 223.602C258.384 223.655 258.287 223.669 258.186 223.642C258.085 223.615 258.006 223.552 257.949 223.453C257.895 223.36 257.88 223.26 257.904 223.153C257.931 223.052 257.991 222.974 258.084 222.921C258.544 222.655 258.643 222.295 258.381 221.841L257.201 219.798C256.952 219.367 256.869 218.961 256.952 218.58C256.767 218.515 256.597 218.416 256.441 218.281C256.286 218.145 256.144 217.967 256.016 217.746L254.836 215.703C254.571 215.243 254.208 215.146 253.748 215.411C253.655 215.465 253.558 215.478 253.457 215.451C253.356 215.424 253.279 215.364 253.225 215.271C253.168 215.172 253.153 215.072 253.18 214.971C253.204 214.864 253.262 214.784 253.355 214.73C254.263 214.206 254.981 214.4 255.509 215.314L256.689 217.358C256.954 217.818 257.317 217.915 257.777 217.649C257.87 217.595 257.967 217.582 258.068 217.609C258.175 217.633 258.257 217.694 258.314 217.793C258.368 217.886 258.378 217.985 258.345 218.089C258.318 218.19 258.258 218.268 258.165 218.322C257.705 218.587 257.608 218.95 257.873 219.41L259.053 221.453C259.577 222.361 259.385 223.077 258.477 223.602ZM261.676 220.916C261.618 220.95 261.561 220.959 261.506 220.945C261.46 220.932 261.422 220.9 261.392 220.848C261.342 220.76 261.321 220.664 261.33 220.558C261.342 220.458 261.35 220.352 261.356 220.24C261.367 220.125 261.339 220.009 261.272 219.893C261.211 219.788 261.14 219.712 261.059 219.666C260.978 219.62 260.892 219.584 260.8 219.56C260.717 219.537 260.637 219.506 260.559 219.466C260.478 219.419 260.409 219.347 260.352 219.248C260.268 219.102 260.247 218.959 260.29 218.818C260.339 218.673 260.436 218.559 260.581 218.475C260.756 218.374 260.939 218.362 261.13 218.438C261.318 218.508 261.482 218.665 261.624 218.909C261.718 219.072 261.794 219.258 261.851 219.465C261.909 219.672 261.941 219.875 261.946 220.074C261.956 220.278 261.938 220.455 261.893 220.605C261.847 220.756 261.775 220.859 261.676 220.916ZM258.818 215.744C258.678 215.825 258.529 215.849 258.371 215.816C258.215 215.774 258.094 215.681 258.01 215.535C257.926 215.389 257.905 215.239 257.947 215.083C257.989 214.926 258.083 214.806 258.228 214.722C258.368 214.642 258.515 214.627 258.668 214.678C258.824 214.72 258.943 214.81 259.023 214.95C259.104 215.09 259.123 215.238 259.082 215.394C259.046 215.547 258.958 215.663 258.818 215.744Z" fill="white"/><path d="M345.227 222.759L202.711 305.044L201.5 304.357L344.034 222.072L345.227 222.759Z" fill="#F3F3F4"/><path d="M345.5 222.941L344 222.073L344.018 119.217L345.5 120.084V222.941Z" fill="#9FA5B9"/><path d="M351.103 114.444C351.103 111.769 349.223 110.684 346.909 112.022L200.795 196.386C198.482 197.724 196.602 200.977 196.602 203.653V310.666C196.602 313.342 198.482 314.426 200.795 313.089L346.909 228.725C349.223 227.387 351.103 224.133 351.103 221.458V114.444ZM202.585 305.117V202.261L345.101 119.976V222.832L202.585 305.117Z" fill="#D0D3DC"/><g opacity="0.8"><path d="M451.211 204.393L324.693 279.067L323.156 278.308V185.9L451.211 111.967L452.712 112.744L451.211 204.393Z" fill="#454C61"/><path d="M452.731 205.152L324.694 279.067L324.676 186.66L452.731 112.744V205.152Z" fill="#30384F"/><path d="M336.698 196.764L333.137 198.825V195.914L336.698 193.854V196.764Z" fill="white"/><path d="M388.796 166.703L340.676 194.487V191.559L388.796 163.793V166.703Z" fill="#3FA9F5"/><path d="M336.716 203.598L333.137 205.659V202.748L336.716 200.688V203.598Z" fill="white"/><path d="M362.91 188.485L340.676 201.319V198.391L362.91 185.574V188.485Z" fill="#3FA9F5"/><path d="M336.716 210.43L333.137 212.491V209.58L336.716 207.52V210.43Z" fill="white"/><path d="M374.407 188.684L340.676 208.153V205.242L374.407 185.756V188.684Z" fill="#3FA9F5"/><path d="M336.716 217.264L333.137 219.325V216.414L336.716 214.354V217.264Z" fill="white"/><path d="M380.932 191.738L340.676 214.985V212.075L380.932 188.828V191.738Z" fill="#3FA9F5"/><path d="M336.713 227.207L333.152 229.268V226.358L336.713 224.297V227.207Z" fill="white"/><path d="M366.16 210.195L340.672 224.928V222L366.16 207.285V210.195Z" fill="#F5D533"/><path d="M336.713 234.039L333.152 236.1V233.19L336.713 231.129V234.039Z" fill="white"/><path d="M387.454 204.737L340.672 231.761V228.833L387.454 201.826V204.737Z" fill="#F5D533"/><path d="M336.713 240.871L333.152 242.932V240.022L336.713 237.961V240.871Z" fill="white"/><path d="M359.11 227.945L340.672 238.593V235.664L359.11 225.035V227.945Z" fill="#F5D533"/><path d="M336.713 247.703L333.152 249.764V246.854L336.713 244.793V247.703Z" fill="white"/><path d="M373.662 226.375L340.672 245.428V242.5L373.662 223.465V226.375Z" fill="#F5D533"/><path d="M412.547 152.296L415.258 150.723V148.5L412.547 150.073V152.296Z" fill="white"/><path d="M437.187 135.846L418.297 146.764V148.987L437.187 138.069V135.846Z" fill="white"/><path d="M412.547 157.501L415.258 155.946V153.723L412.547 155.295V157.501Z" fill="white"/><path d="M427.01 146.926L418.297 151.969V154.193L427.01 149.149V146.926Z" fill="white"/><path d="M412.547 162.726L415.258 161.153V158.93L412.547 160.502V162.726Z" fill="white"/><path d="M431.529 149.547L418.297 157.175V159.399L431.529 151.752V149.547Z" fill="white"/><path d="M412.547 167.931L415.258 166.358V164.135L412.547 165.707V167.931Z" fill="white"/><path d="M434.096 153.271L418.297 162.4V164.624L434.096 155.495V153.271Z" fill="white"/><path d="M412.547 175.505L415.258 173.95V171.727L412.547 173.281V175.505Z" fill="white"/><path d="M430.607 162.871L418.297 169.975V172.199L430.607 165.095V162.871Z" fill="white"/><path d="M412.547 180.73L415.258 179.157V176.934L412.547 178.506V180.73Z" fill="white"/><path d="M418.297 175.18V177.404L440.893 164.352V162.129L418.297 175.18Z" fill="white"/><path d="M412.547 185.937L415.258 184.364V182.141L412.547 183.713V185.937Z" fill="white"/><path d="M427.209 175.254L418.297 180.406V182.629L427.209 177.477V175.254Z" fill="white"/><path d="M412.547 191.141L415.258 189.587V187.363L412.547 188.918V191.141Z" fill="white"/><path d="M418.297 187.835L434.222 178.634V176.41L418.297 185.611V187.835Z" fill="white"/></g><g style="mix-blend-mode:multiply" opacity="0.3"><path d="M293.583 405.784L227.91 369.468C225.488 368.076 221.565 368.076 219.143 369.468L176.103 392.805C173.68 394.197 174.078 397.758 176.5 399.15L241.667 436.785C244.089 438.177 248.012 438.177 250.434 436.785L293.077 412.165C295.499 410.773 296.005 407.176 293.583 405.784Z" fill="#878FA8"/></g><path d="M293.077 410.358L250.434 434.979C248.012 436.37 244.089 436.37 241.667 434.979L176.5 397.343C174.078 395.951 173.68 392.39 176.103 390.998L219.143 367.661C221.565 366.269 225.488 366.269 227.91 367.661L293.583 403.977C296.005 405.369 295.499 408.966 293.077 410.358Z" fill="#626879"/><path d="M293.077 408.55L250.434 433.17C248.011 434.562 244.089 434.562 241.667 433.17L176.5 395.534C174.078 394.142 174.078 391.865 176.5 390.473L219.143 365.853C221.565 364.461 225.488 364.461 227.91 365.853L293.077 403.488C295.499 404.88 295.499 407.158 293.077 408.55Z" fill="#CBCED9"/><path opacity="0.6" d="M243.331 429.066L180.895 393.003L223.519 368.383L285.974 404.446L243.331 429.066Z" fill="#0077CC"/><path style="mix-blend-mode:overlay" d="M250.887 384.182L223.537 368.383L180.895 393.003L223.899 417.822C223.971 417.443 224.043 417.063 224.152 416.684C227.496 404.626 235.938 392.208 250.905 384.182H250.887Z" fill="url(#paint5_linear_1643_11525)"/><path d="M269.937 417.715C270.931 418.294 270.931 419.234 269.937 419.812C268.942 420.39 267.316 420.39 266.303 419.812C265.291 419.234 265.309 418.294 266.303 417.715C267.297 417.137 268.924 417.137 269.937 417.715Z" fill="#666C7D"/><g style="mix-blend-mode:multiply" opacity="0.3"><path d="M422.484 293.021C422.303 292.19 422.032 291.25 421.689 290.292C421.653 290.165 421.598 290.057 421.562 289.93C421.472 289.695 421.381 289.46 421.273 289.207C421.201 289.045 421.146 288.9 421.074 288.737C420.984 288.502 420.875 288.285 420.767 288.05C420.676 287.87 420.604 287.689 420.514 287.508C420.405 287.291 420.297 287.074 420.188 286.857C420.08 286.659 419.971 286.46 419.863 286.261C419.755 286.062 419.646 285.845 419.52 285.646C419.393 285.411 419.248 285.176 419.104 284.941C418.995 284.779 418.905 284.598 418.796 284.435C418.543 284.037 418.29 283.658 418.019 283.26C417.929 283.134 417.838 283.025 417.766 282.917C417.567 282.645 417.368 282.374 417.151 282.103C417.043 281.959 416.916 281.814 416.808 281.669C416.609 281.434 416.428 281.199 416.23 280.982C416.103 280.838 415.976 280.693 415.85 280.549C415.651 280.332 415.452 280.115 415.235 279.916C415.109 279.771 414.964 279.645 414.82 279.518C414.603 279.319 414.386 279.121 414.169 278.922C414.024 278.795 413.898 278.687 413.753 278.56C413.5 278.361 413.265 278.162 413.012 277.982C412.885 277.891 412.777 277.801 412.65 277.711C412.271 277.439 411.891 277.186 411.493 276.951C409.993 276.066 408.601 275.361 407.3 274.782C407.3 274.782 407.3 274.782 407.3 274.764C407.245 274.746 407.209 274.728 407.155 274.71C406.866 274.583 406.595 274.475 406.305 274.366C405.944 274.222 405.582 274.095 405.221 273.969C405.076 273.914 404.914 273.842 404.769 273.806C404.642 273.77 404.534 273.752 404.426 273.716C404.046 273.607 403.684 273.535 403.305 273.444C403.088 273.408 402.871 273.336 402.654 273.318C402.094 273.228 401.551 273.191 401.009 273.191C400.973 273.191 400.937 273.191 400.901 273.191C400.774 273.191 400.648 273.228 400.521 273.228C400.123 273.228 399.726 273.282 399.31 273.336C399.111 273.372 398.912 273.408 398.713 273.444C398.334 273.535 397.936 273.643 397.556 273.77C397.376 273.824 397.195 273.878 397.014 273.951C396.454 274.168 395.893 274.421 395.333 274.728C394.899 274.981 394.465 275.234 394.068 275.523C393.977 275.578 393.887 275.65 393.796 275.704C393.76 275.722 393.724 275.758 393.688 275.776C393.67 275.776 393.634 275.813 393.616 275.831C393.272 276.084 392.947 276.337 392.621 276.608C392.603 276.626 392.567 276.662 392.549 276.68C392.405 276.807 392.278 276.915 392.151 277.042C392.151 277.042 392.151 277.042 392.133 277.06C391.916 277.259 391.718 277.457 391.519 277.674C391.483 277.711 391.446 277.747 391.41 277.783C391.067 278.162 390.741 278.542 390.452 278.958C390.452 278.958 390.434 278.994 390.416 278.994C388.536 281.651 388.102 284.797 389.458 288.52C389.458 288.52 401.479 298.119 408.746 300.361C416.013 302.602 422.791 299.583 422.791 295.118C422.791 294.522 422.701 293.817 422.538 293.058L422.484 293.021Z" fill="#616C8C"/></g><path d="M388.592 287.636C388.592 287.636 400.884 297.072 408.151 299.295C415.418 301.518 422.197 298.536 422.197 294.053C422.197 289.57 417.659 279.808 410.953 275.886C404.247 271.963 399.782 270.86 394.756 273.644C389.731 276.446 386.369 281.471 388.61 287.617L388.592 287.636Z" fill="#C6CAD6"/><path d="M394.739 273.679C390.799 275.866 387.906 279.427 387.906 283.82C387.942 283.91 387.96 283.983 387.979 284.073C387.979 284.073 400.488 293.672 407.899 295.949C414.497 297.974 420.697 295.751 421.945 292.009C420.932 287.074 416.757 279.301 410.936 275.902C404.229 271.998 399.765 270.877 394.739 273.661V273.679Z" fill="#616C8C"/><path d="M394.737 273.68C392.369 275 390.399 276.807 389.188 278.976C390.778 279.772 392.297 280.441 393.652 280.856C400.25 282.881 406.451 280.658 407.698 276.916C408.15 275.198 407.734 274.783 406.722 273.716C402.203 271.71 398.623 271.511 394.737 273.68Z" fill="white"/><path d="M400.325 274.096C402.241 275.235 403.362 277.476 402.892 277.747C402.422 278.036 400.488 277.331 398.572 276.193C396.656 275.054 395.499 273.897 395.987 273.608C396.457 273.318 398.427 272.939 400.343 274.096H400.325Z" fill="#84C8F9"/><path d="M135.341 335.556L101.23 360.339C96.8735 362.852 86.5156 355.766 86.5156 350.722V307.646C86.5156 302.602 90.0406 296.492 94.4151 293.962L131.725 272.432C136.082 269.92 146.964 275.09 147.018 279.555L143.24 321.872C143.24 326.915 139.697 333.025 135.341 335.556Z" fill="#FFBCBE"/><path d="M88.8114 299.891C87.3833 302.367 86.5156 305.133 86.5156 307.646V350.722C86.5156 355.766 96.8735 362.852 101.23 360.339L135.341 335.556C137.564 334.272 139.571 332.049 141.017 329.5C124.892 320.371 105.858 307.646 88.8294 299.891H88.8114Z" fill="#FF6469"/><g style="mix-blend-mode:multiply"><path d="M88.8114 299.891C87.3833 302.367 86.5156 305.133 86.5156 307.646V350.722C86.5156 355.766 96.8735 362.852 101.23 360.339L135.341 335.556C137.564 334.272 139.571 332.049 141.017 329.5C124.892 320.371 105.858 307.646 88.8294 299.891H88.8114Z" fill="#FFAAAC"/></g><path d="M139.518 338.34L102.208 359.87C97.8516 362.382 94.3086 360.34 94.3086 355.314V312.238C94.3086 307.194 97.8335 301.084 102.208 298.554L139.518 277.024C143.875 274.512 147.418 276.554 147.418 281.58V324.656C147.418 329.7 143.893 335.81 139.518 338.34Z" fill="#FF7B80"/><path d="M102.385 324.858C101.714 325.246 101.009 325.482 100.272 325.564C99.5428 325.643 98.8228 325.583 98.1116 325.385C97.4039 325.175 96.7533 324.843 96.1598 324.389C95.5615 323.927 95.0636 323.352 94.6662 322.664C94.2736 321.984 94.0251 321.276 93.9209 320.54C93.8202 319.791 93.8579 319.061 94.0341 318.352C94.2186 317.637 94.5269 316.983 94.959 316.391C95.3946 315.786 95.9524 315.287 96.6324 314.894C97.2295 314.549 97.823 314.323 98.4128 314.215C99.0027 314.106 99.6358 314.111 100.312 314.229C100.42 314.244 100.502 314.291 100.559 314.369C100.618 314.434 100.653 314.513 100.663 314.607C100.668 314.693 100.647 314.771 100.6 314.843C100.622 314.919 100.609 314.992 100.562 315.064C100.515 315.135 100.443 315.193 100.347 315.238C100.259 315.277 100.155 315.288 100.034 315.269C99.5473 315.174 99.0751 315.17 98.617 315.258C98.1542 315.337 97.6698 315.523 97.1639 315.815C96.6248 316.126 96.1812 316.526 95.833 317.014C95.4931 317.498 95.2525 318.03 95.1114 318.609C94.9702 319.188 94.9372 319.782 95.0124 320.391C95.0959 320.995 95.2956 321.571 95.6116 322.118C95.9372 322.682 96.3408 323.151 96.8223 323.526C97.3121 323.895 97.8431 324.164 98.4151 324.331C98.9872 324.498 99.5677 324.556 100.157 324.503C100.749 324.438 101.315 324.249 101.854 323.938C102.31 323.675 102.698 323.351 103.018 322.967C103.338 322.583 103.6 322.145 103.802 321.652C103.853 321.512 103.938 321.419 104.055 321.373C104.181 321.323 104.309 321.315 104.44 321.35C104.571 321.385 104.674 321.469 104.751 321.602C104.789 321.668 104.813 321.737 104.821 321.81C104.834 321.869 104.832 321.942 104.815 322.029C104.617 322.663 104.305 323.214 103.878 323.681C103.447 324.14 102.949 324.533 102.385 324.858ZM108.802 319.064C108.669 319.14 108.531 319.159 108.387 319.121C108.239 319.074 108.126 318.984 108.049 318.852L106.922 316.899L104.969 318.026C104.836 318.103 104.698 318.122 104.554 318.083C104.405 318.036 104.292 317.947 104.216 317.814C104.134 317.673 104.113 317.53 104.152 317.387C104.19 317.243 104.276 317.132 104.408 317.056L106.361 315.928L105.234 313.975C105.157 313.843 105.138 313.704 105.177 313.56C105.215 313.416 105.301 313.306 105.434 313.23C105.575 313.148 105.717 313.127 105.861 313.165C106.005 313.204 106.115 313.29 106.192 313.422L107.319 315.375L109.272 314.248C109.405 314.171 109.546 314.156 109.694 314.203C109.847 314.237 109.961 314.32 110.038 314.453C110.114 314.585 110.132 314.73 110.089 314.887C110.051 315.031 109.965 315.141 109.833 315.218L107.88 316.346L109.007 318.299C109.084 318.431 109.105 318.574 109.071 318.726C109.033 318.87 108.943 318.982 108.802 319.064ZM115.605 315.136C115.472 315.213 115.334 315.232 115.19 315.193C115.041 315.146 114.929 315.057 114.852 314.924L113.725 312.971L111.772 314.098C111.639 314.175 111.501 314.194 111.357 314.156C111.208 314.109 111.095 314.019 111.019 313.886C110.937 313.745 110.916 313.603 110.955 313.459C110.993 313.315 111.079 313.205 111.211 313.128L113.164 312.001L112.037 310.048C111.96 309.915 111.941 309.777 111.98 309.633C112.018 309.489 112.104 309.379 112.237 309.302C112.378 309.22 112.52 309.199 112.664 309.238C112.808 309.276 112.918 309.362 112.995 309.495L114.122 311.448L116.075 310.32C116.208 310.243 116.349 310.228 116.497 310.275C116.65 310.309 116.764 310.392 116.841 310.525C116.917 310.658 116.934 310.803 116.892 310.96C116.854 311.103 116.768 311.214 116.636 311.29L114.683 312.418L115.81 314.371C115.887 314.504 115.908 314.646 115.874 314.798C115.836 314.942 115.746 315.055 115.605 315.136Z" fill="white"/><path style="mix-blend-mode:overlay" opacity="0.7" d="M147.418 293.076V281.579C147.418 276.536 143.875 274.511 139.518 277.024L102.208 298.553C97.8516 301.066 94.3086 307.194 94.3086 312.237V342.66C109.276 320.588 127.841 302.729 147.4 293.076H147.418Z" fill="url(#paint6_linear_1643_11525)"/><path d="M427.059 152.042L392.949 176.826C388.592 179.338 378.234 172.252 378.234 167.209V124.132C378.234 119.089 381.759 112.979 386.134 110.448L423.444 88.9188C427.801 86.4062 438.683 91.5761 438.737 96.041L434.959 138.358C434.959 143.402 431.416 149.512 427.059 152.042Z" fill="#B4ECFF"/><path d="M380.53 116.377C379.102 118.853 378.234 121.619 378.234 124.132V167.208C378.234 172.252 388.592 179.338 392.949 176.825L427.059 152.042C429.283 150.759 431.289 148.535 432.735 145.987C416.611 136.858 397.576 124.132 380.548 116.377H380.53Z" fill="#3FA9F5"/><path d="M380.53 116.377C379.102 118.853 378.234 121.619 378.234 124.132V167.208C378.234 172.252 388.592 179.338 392.949 176.825L427.059 152.042C429.283 150.759 431.289 148.535 432.735 145.987C416.611 136.858 397.576 124.132 380.548 116.377H380.53Z" fill="#3FA9F5"/><g style="mix-blend-mode:multiply"><path d="M380.53 116.377C379.102 118.853 378.234 121.619 378.234 124.132V167.208C378.234 172.252 388.592 179.338 392.949 176.825L427.059 152.042C429.283 150.759 431.289 148.535 432.735 145.987C416.611 136.858 397.576 124.132 380.548 116.377H380.53Z" fill="#95D0F9"/></g><path d="M431.237 154.827L393.927 176.356C389.57 178.869 386.027 176.826 386.027 171.801V128.724C386.027 123.681 389.552 117.571 393.927 115.04L431.237 93.5106C435.593 90.998 439.137 93.0406 439.137 98.0659V141.143C439.137 146.186 435.612 152.296 431.237 154.827Z" fill="#3FA9F5"/><path d="M391.401 144.094C391.26 144.175 391.118 144.197 390.974 144.158C390.83 144.12 390.717 144.03 390.636 143.889L385.587 135.144C385.505 135.003 385.484 134.86 385.522 134.717C385.561 134.573 385.651 134.46 385.792 134.379L388.28 132.942C388.893 132.588 389.516 132.411 390.146 132.412C390.772 132.404 391.354 132.56 391.893 132.88C392.431 133.199 392.88 133.67 393.239 134.292C393.588 134.897 393.767 135.513 393.774 136.139C393.777 136.757 393.621 137.339 393.306 137.885C392.987 138.424 392.52 138.87 391.907 139.224L389.904 140.381L391.606 143.329C391.687 143.47 391.709 143.612 391.67 143.756C391.632 143.9 391.542 144.013 391.401 144.094ZM389.365 139.448L391.368 138.291C391.791 138.047 392.116 137.738 392.342 137.364C392.564 136.982 392.67 136.572 392.661 136.135C392.66 135.693 392.538 135.261 392.293 134.838C392.04 134.398 391.722 134.068 391.339 133.846C390.965 133.62 390.557 133.507 390.116 133.508C389.674 133.508 389.241 133.631 388.818 133.875L386.816 135.031L389.365 139.448ZM399.018 139.696C398.877 139.778 398.734 139.799 398.591 139.761C398.447 139.722 398.334 139.632 398.253 139.491L393.204 130.746C393.122 130.605 393.101 130.463 393.139 130.319C393.178 130.175 393.268 130.062 393.409 129.981C393.55 129.9 393.692 129.878 393.836 129.917C393.98 129.955 394.093 130.045 394.174 130.186L396.415 134.067L402.485 130.562L400.245 126.681C400.163 126.54 400.142 126.398 400.18 126.254C400.219 126.11 400.309 125.997 400.45 125.916C400.591 125.834 400.733 125.813 400.877 125.852C401.021 125.89 401.133 125.98 401.215 126.121L406.264 134.866C406.345 135.007 406.367 135.149 406.328 135.293C406.29 135.437 406.2 135.55 406.059 135.631C405.918 135.713 405.775 135.734 405.631 135.696C405.488 135.657 405.375 135.567 405.294 135.426L402.988 131.433L396.918 134.938L399.223 138.931C399.304 139.072 399.326 139.215 399.287 139.358C399.249 139.502 399.159 139.615 399.018 139.696ZM409.514 133.637C409.373 133.718 409.231 133.739 409.087 133.701C408.943 133.662 408.83 133.572 408.749 133.431L403.7 124.686C403.618 124.545 403.597 124.403 403.635 124.259C403.674 124.115 403.764 124.002 403.905 123.921L406.393 122.485C407.006 122.13 407.629 121.954 408.259 121.954C408.885 121.947 409.467 122.103 410.006 122.422C410.544 122.742 410.993 123.212 411.352 123.834C411.701 124.44 411.88 125.056 411.887 125.681C411.89 126.299 411.734 126.881 411.419 127.428C411.1 127.966 410.633 128.412 410.02 128.767L408.017 129.923L409.719 132.871C409.8 133.012 409.822 133.155 409.783 133.299C409.745 133.442 409.655 133.555 409.514 133.637ZM407.478 128.99L409.481 127.834C409.904 127.59 410.229 127.28 410.455 126.906C410.677 126.524 410.783 126.115 410.774 125.678C410.773 125.236 410.65 124.803 410.406 124.38C410.153 123.941 409.835 123.61 409.452 123.389C409.078 123.162 408.67 123.049 408.229 123.05C407.787 123.051 407.354 123.173 406.931 123.418L404.929 124.574L407.478 128.99Z" fill="white"/><path style="mix-blend-mode:overlay" opacity="0.7" d="M439.137 109.58V98.0828C439.137 93.0395 435.593 91.0149 431.237 93.5275L393.927 115.057C389.57 117.569 386.027 123.697 386.027 128.741V159.164C400.995 137.092 419.56 119.233 439.118 109.58H439.137Z" fill="url(#paint7_linear_1643_11525)"/></g><defs><linearGradient id="paint0_linear_1643_11525" x1="338.631" y1="98.7708" x2="306.671" y2="2.20541" gradientUnits="userSpaceOnUse"><stop stop-color="#EDFAFF"/><stop offset="1" stop-color="#30384F" stop-opacity="0"/></linearGradient><linearGradient id="paint1_linear_1643_11525" x1="97.7791" y1="133.171" x2="65.8196" y2="36.6053" gradientUnits="userSpaceOnUse"><stop stop-color="#EDFAFF"/><stop offset="1" stop-color="#30384F" stop-opacity="0"/></linearGradient><linearGradient id="paint2_linear_1643_11525" x1="223.935" y1="75.325" x2="191.994" y2="-21.2404" gradientUnits="userSpaceOnUse"><stop stop-color="#EDFAFF"/><stop offset="1" stop-color="#30384F" stop-opacity="0"/></linearGradient><linearGradient id="paint3_linear_1643_11525" x1="46.1697" y1="272.796" x2="14.2102" y2="176.23" gradientUnits="userSpaceOnUse"><stop stop-color="#EDFAFF"/><stop offset="1" stop-color="#30384F" stop-opacity="0"/></linearGradient><linearGradient id="paint4_linear_1643_11525" x1="254.773" y1="96.0612" x2="283.19" y2="269.597" gradientUnits="userSpaceOnUse"><stop stop-color="#3FA9F5"/><stop offset="1" stop-color="#65D8FF"/></linearGradient><linearGradient id="paint5_linear_1643_11525" x1="123.172" y1="345.363" x2="278.526" y2="419.115" gradientUnits="userSpaceOnUse"><stop stop-color="#30384F" stop-opacity="0"/><stop offset="1" stop-color="#EDFAFF"/></linearGradient><linearGradient id="paint6_linear_1643_11525" x1="132.685" y1="347.107" x2="100.726" y2="250.541" gradientUnits="userSpaceOnUse"><stop stop-color="#EDFAFF"/><stop offset="1" stop-color="#30384F" stop-opacity="0"/></linearGradient><linearGradient id="paint7_linear_1643_11525" x1="424.404" y1="163.593" x2="392.445" y2="67.0272" gradientUnits="userSpaceOnUse"><stop stop-color="#EDFAFF"/><stop offset="1" stop-color="#30384F" stop-opacity="0"/></linearGradient><clipPath id="clip0_1643_11525"><rect width="650" height="676.573" fill="white"/></clipPath></defs></svg>